<svg id="Layer_1" xmlns="http://www.w3.org/2000/svg" xmlns:xlink="http://www.w3.org/1999/xlink" viewBox="0 0 551.6 607.6"><style>.st0{clip-path:url(#SVGID_2_);fill:#fff}</style><defs><path id="SVGID_1_" d="M24.7 13.2h502.2v569.2H24.7z"/></defs><clipPath id="SVGID_2_"><use xlink:href="#SVGID_1_" overflow="visible"/></clipPath><path class="st0" d="M447.4 238c.4 6.4-9.8 21.5-27 26-27.9 7.4-65.7 17.7-82.7 21.3-12.5-7.9-38.2-17.6-42.7-19.4.3 3 .6 3-1.2 6.2 4.3 2.2 37.8 28.1 40.7 30.8 3.6 3.4 8.1 46.8 10.6 51.6 5.8 6.8 23.1 17.9 23.3 18.6 2.5 8.2 22 29.4 17.4 34.6-.8-1.6-2.5-3.2-4.4-3.9-.4 2.8-3.1 4-5.8 1.7 5.3-1.1-2.4-9.5-11.8-27.7-.3-.1-1.9.7-2.1.5-.6-.4-23-20.4-23.7-21-.9-.8-2.4.1-2.7-.7-3-8.5 0-36.6-5.4-46.2-.2-.3-2.9.2-3.5-.3-11.4-9.4-27.8-23.3-38.9-28.6-.5.6-1.9 2.1-2.1 2.3 5.1 6.8 36.2 48.3 35.4 54.6 0 .2-2.5 1.6-2.4 2-5.2 20.3-11.6 48.1-10 52.6 2.4 4.4 12.7 28.2 17.4 33 .6.6-.7 2.2-.4 2.9 16.9 24.1 28.4 26.8 31.5 28.2-.7 1.1-1.8 2.6-2.5 3.3.7 2.5-1 6.7-4.6 6 2.6-2.7 1.9-5.3-2.5-6.3-11.4-2.5-24.3-19.1-46.1-65.8-.5-.8-3-1.2-3-1.9.2-20 13.1-52.5 13.3-53.3-.1-.3-16.5-23.6-27-35.8-.1.5-.3.6-.6.9.2 1.6 3.3 16.1 2.4 17.2-.9 1.1-1.6 2.6-1.2 3.2 1 1.8 2.3 16.4 2.3 20.5 0 1-.6 1.5-1 1.8-.4.3-.5.4-.5.6 0 1.9 1.8 17.7 1.5 18-.3.4-1 .6-1 .6 0 1 1.3 17.7 1.1 18-.2.4-1.6.8-1.6.8-.1.5.8 12.8.5 13.1-.3.3-2.3.6-2.4.6-.1.5-.5 6.2-.8 6.8-.4.6-2.9.9-2.9 1.7 0 .6.2 4.8-.3 5.2-.3.3-1.8-.3-2.2-.3-.8 0-3.4 1.6-4 1.6-.6 0-3.1-1.6-4-1.6-.4 0-1.9.6-2.2.3-.4-.4-.3-4.6-.3-5.2 0-.7-2.5-1-2.9-1.7-.3-.6-.7-6.3-.8-6.8-.1 0-2.1-.3-2.4-.6-.3-.3.6-12.7.5-13.1 0 0-1.4-.4-1.6-.8-.2-.3 1.1-17 1.1-18 0 0-.7-.3-1-.6-.2-.3 1.5-16.1 1.5-18 0-.2-.1-.3-.5-.6s-1-.8-1-1.8c0-4.1 1.4-18.7 2.4-20.5.4-.7-.3-2.1-1.2-3.2-.8-1.1 2.2-15.5 2.4-17.2-.3-.3-.6-.4-.7-.9-10.4 12.2-26.8 35.5-27 35.8.2.8 13.1 33.3 13.3 53.3 0 .7-2.5 1.1-3 1.9-21.8 46.6-34.7 63.3-46.1 65.8-4.4 1-5.1 3.5-2.5 6.3-3.6.7-5.4-3.5-4.6-6-.7-.7-1.7-2.2-2.5-3.3 3.1-1.3 14.7-4 31.5-28.2.3-.7-1-2.3-.4-2.9 4.7-4.8 15-28.5 17.4-33 1.6-4.5-4.8-32.3-10-52.6.2-.3-2.4-1.8-2.4-2-.9-6.3 30.3-47.8 35.4-54.6-.3-.3-1.7-1.7-2.1-2.3-11 5.3-27.5 19.2-38.9 28.6-.6.5-3.3 0-3.5.3-5.4 9.6-2.4 37.7-5.4 46.2-.3.8-1.8-.1-2.7.7-.7.6-23.1 20.6-23.7 21-.2.1-1.8-.7-2.1-.5-9.4 18.2-17.2 26.7-11.8 27.7-2.7 2.2-5.5 1.1-5.8-1.7-1.9.7-3.6 2.3-4.4 3.9-4.5-5.2 14.9-26.4 17.4-34.6.2-.7 17.5-11.8 23.3-18.6 2.5-4.8 7-48.2 10.6-51.6 2.9-2.8 36.4-28.6 40.7-30.8-1.8-3.1-1.5-3.2-1.2-6.2-4.5 1.8-30.2 11.5-42.7 19.4-17-3.6-54.8-13.9-82.7-21.3-17.2-4.6-27.4-19.6-27-26 .4-6.5 15.5-9.5 32.3-8.5 13.5.8 84.4 28.2 108.9 28.2h12.1c.3-1.6.7-2.7.8-3-7.5-1.5-37.2-30.9-37.2-30.9-1.4-12.9-15.5-33.6-16-35l.4-1.9c-6.5-3-52.8-15.4-52.8-35.8 0-2.3.6-4.4 2.5-6.5.1 1.7 1.1 4.9 2.5 5.4.3.1 1.1.1 1.6 0 12.3 21.1 51.2 32.5 51.2 32.5 1 .3 5.7 2.1 17 35.2.9.4 1.4.4 2.6.5.7.7 24.4 24 31 23.2 2.8-6 11.8-5.6 10.2-10.6-11.2-1-11.7-5.8-8.4-11.7-2.5-2.8-4.8-6-6.3-8.5-1.5-.1-7-.2-7-.5v-.1c0-.3 4.5-2.6 5.1-2.7-.7-1.2-1.5-2.5-2.4-3.9-1.7 0-9.1-.3-9.1-.6v-.1c0-.3 6.4-2.6 7-2.6l-1.8-2.7c-.1 0-9.1-.5-9.2-.8v-.1c.1-.3 6.1-2.4 6.7-2.5-.6-.8-1.1-1.5-1.7-2.3-4.7.8-8.8.1-8.8.2v-.1c0-.3 6.1-2.4 6.9-2.5-.7-.8-1.4-1.7-2.1-2.5-.3 0-7.7.9-7.7.6 0 0 5-2.7 5.7-2.8-.4-.5-1.1-1.2-1.6-1.7-.2 0-6.3 1.1-6.3.8 0 0 3.4-2.9 4.2-3-.7-.7-1.2-1.1-2-1.8-.1 0-5.1 1.2-5.1.9 0 0 2-2.2 3.1-2.6-1.1-.9-2.1-1.7-3.2-2.4-.7.1-3.2 1.3-3.2 1 0 0 1.4-1.9 1.6-1.9-.6-.7-4.7-2.9-4.4-2.9.9-.1 3.7.4 6.1 1.4.3-.3 1.5-1.8 1.8-1.7.2.1 0 2.2 0 2.4 1.2.8 2.4 1.6 3.6 2.6.3-.4 1.6-2.1 1.9-1.9.2.1 0 3.2-.1 3.4.9.8 1.9 1.6 2.8 2.5.4-.6 2-3.2 2.3-3.1.2.1-.3 4.4-.5 4.9l1.7 1.7c.7-.9 2.4-3.3 2.7-3.2.3.1-.6 4.5-.9 5.2.8.9 1.6 1.8 2.3 2.7.8-1.1 2.9-3.7 3.2-3.6.3.1-.9 4.8-1.4 5.8.7.9 1.4 1.7 2 2.6 1-1.3 4.5-5.2 4.8-5.1.3.1-2.2 6.6-2.7 7.9.8 1.1 1.5 2.1 2.3 3.2 1.2-1.6 3.8-4.9 4.2-4.8.3.1-1.7 5.8-2.1 7.9.9 1.4 1.8 2.8 2.6 4 1.6-2.3 3.1-5 3.4-5 .3.1-.9 5.8-1.4 8.3 1.1 1.9 4.9 6.3 7.4 7.8 2.1 1.2 6.5-.6 6.5-3.8-4.6-.7-8.1-3.3-8.1-6.7 0-3 3.4-4.6 5.3-4.6v4.2c0 2.5.6 4.3 3.3 4.3v-55.6c0-5.2-1.2-14.8-1.9-17.1-.5-1.8-.9-3.1-.3-4 .4-.6 1.3-1 2.8-1.2.3 0 2.4-3.3 2.4-3.3s2.1 3.3 2.4 3.3c1.5.2 2.3.5 2.8 1.2.6.9.2 2.1-.3 4-.7 2.3-1.9 11.9-1.9 17.1v55.6c2.7 0 3.3-1.8 3.3-4.3v-4.2c1.9 0 5.3 1.6 5.3 4.6 0 3.4-3.6 6-8.1 6.7 0 3.3 4.4 5.1 6.5 3.8 2.5-1.5 6.2-5.9 7.4-7.8-.4-2.4-1.7-8.2-1.4-8.3.3-.1 1.8 2.7 3.4 5 .8-1.3 1.7-2.6 2.6-4-.4-2.1-2.3-7.8-2.1-7.9.3-.1 3 3.2 4.2 4.8.7-1 1.5-2.1 2.3-3.2-.5-1.3-3-7.9-2.7-7.9.3-.1 3.9 3.8 4.9 5.1.7-.9 1.3-1.7 2-2.6-.5-1-1.7-5.7-1.4-5.8.3-.1 2.4 2.5 3.2 3.6.8-.9 1.5-1.8 2.3-2.7-.3-.7-1.1-5.1-.9-5.2.3-.1 2.1 2.3 2.7 3.2.6-.6 1.1-1.2 1.7-1.7-.1-.5-.7-4.8-.5-4.9.3-.1 1.9 2.6 2.3 3.1.9-.9 1.8-1.7 2.8-2.5 0-.2-.3-3.3-.1-3.4.3-.1 1.6 1.6 1.9 1.9 1.2-.9 2.4-1.8 3.6-2.6 0-.2-.2-2.3 0-2.4.3-.2 1.5 1.3 1.8 1.7 2.4-1 5.2-1.5 6.1-1.4.3 0-3.8 2.2-4.4 2.9.3 0 1.7 1.9 1.7 1.9 0 .3-2.5-.9-3.2-1-1.2.7-2.1 1.5-3.2 2.4 1.1.4 3.1 2.6 3.1 2.6 0 .3-5-.9-5.1-.9-.7.7-1.2 1.1-2 1.8.7.1 4.2 3 4.2 3 0 .3-6.1-.8-6.3-.8-.4.5-1.1 1.2-1.6 1.7.8.1 5.7 2.8 5.7 2.8 0 .3-7.4-.6-7.7-.6-.7.8-1.4 1.7-2.1 2.5.7.1 6.8 2.2 6.9 2.5v.1c0-.2-4.1.5-8.8-.2-.6.8-1.1 1.5-1.7 2.3.7.1 6.7 2.2 6.7 2.5v.1c0 .3-9.1.8-9.1.8l-1.8 2.7c.6.1 6.9 2.3 7 2.6v.1c0 .3-7.5.6-9.1.6l-2.4 3.9c.6.1 5.1 2.3 5.1 2.7v.1c0 .3-5.5.4-7 .5-1.5 2.5-3.8 5.8-6.3 8.5 3.3 5.9 2.8 10.7-8.4 11.7-1.7 5 7.3 4.6 10.2 10.6 6.6.8 30.3-22.5 31-23.2 1.2-.1 1.7-.1 2.6-.5 11.3-33.1 16.1-34.9 17-35.2 0 0 38.9-11.4 51.2-32.5.5.2 1.3.1 1.6 0 1.4-.5 2.4-3.7 2.5-5.4 1.9 2.1 2.5 4.2 2.5 6.5 0 20.4-46.3 32.8-52.8 35.8l.4 1.9c-.5 1.4-14.6 22.1-16 35 0 0-29.8 29.4-37.2 30.9.1.3.5 1.4.8 3h12.1c24.4 0 95.4-27.3 108.9-28.2 17.5-1 32.6 2 33 8.5m79.5 202.1V155.5L275.8 13.2 24.7 155.5v284.6l251.1 142.3 251.1-142.3z"/></svg>