<svg id="Layer_1" xmlns="http://www.w3.org/2000/svg" viewBox="0 0 550 407.9"><style>.st0{fill:#fff}</style><path class="st0" d="M45 336.6c-17.7 0-30.6 12.5-30.6 30s12.9 30 30.6 30c4.8 0 9.6-1 13.9-3l4.7 5.4 8.7-7.1-4.3-5c5.1-5.7 7.8-13 7.7-20.5-.1-17.4-13-29.8-30.7-29.8zm14.9 41l-6.6-7.7-8.7 6.9 6.6 7.7c-2 .8-4 1-6.1 1-10.8 0-17.7-8.2-17.7-19s6.9-19 17.7-19 17.8 8.1 17.8 19c-.1 3.9-1.1 7.8-3 11.1zm68.6-5.7c0 8.1-4.4 13.6-13.4 13.6s-13.5-5.5-13.5-13.6v-34.3H89v34.9c0 14.3 8.3 24.2 26.3 24.2s26.1-9.8 26.1-24.2v-34.7h-12.6l-.3 34.1zm28.6 23.6h41.4v-10.7h-29v-13.5h28.3v-10.5h-28.3v-12.7h29v-10.5h-41.4zm77.8-35.5c-6.8-1.5-11.7-2.8-11.7-6.7 0-3.5 3-5.9 8.6-5.9 6.2 0 12.1 2.2 16.8 6.3l6.9-9c-5.9-5.3-13.5-8.1-22.8-8.1-13.8 0-22.2 7.8-22.2 17.5 0 13 12.2 15.6 21.8 17.7 6.8 1.5 11.8 3.1 11.8 7.3 0 3.3-3.4 6.6-10.1 6.6-7 0-13.8-2.8-18.6-7.8l-6.9 9.4c5.5 5.4 13.7 9.1 24.8 9.1 15.7 0 23.4-8 23.4-18.5.2-12.8-12.2-15.7-21.8-17.9zm30.5-11.6h17.2v47.1h12.5v-47.1h17v-10.8h-46.7zm59.1-10.8H337v57.9h-12.5zm56.1-1c-17.7 0-30.6 12.5-30.6 30s12.9 30 30.6 30 30.7-12.5 30.7-30c0-17.6-12.8-30-30.7-30zm0 49c-10.8 0-17.7-8.2-17.7-19s6.9-19 17.7-19 17.8 8.1 17.8 19-7 19-17.8 19zm83.8-10.6l-27.1-37.4h-12.8v57.9h12.4v-39l28 39h12v-57.9h-12.5zm50.7-15c-6.8-1.5-11.7-2.8-11.7-6.7 0-3.5 3-5.9 8.6-5.9 6.2 0 12.2 2.2 16.8 6.3l6.9-9c-5.9-5.3-13.5-8.1-22.8-8.1-13.8 0-22.2 7.8-22.2 17.5 0 13 12.4 15.6 21.8 17.7 6.8 1.5 11.8 3.1 11.8 7.3 0 3.3-3.4 6.6-10.1 6.6-7 0-13.8-2.8-18.6-7.8l-6.9 9.4c5.5 5.4 13.7 9.1 24.8 9.1 15.7 0 23.4-8 23.4-18.5.2-12.8-12.2-15.7-21.8-17.9zM25.1 69.4h12.5v-47h17.1V11.6H8v10.8h17.1zm54.4-24.3h27.7v24.3h12.5V11.6h-12.5v22.6H79.5V11.6H67v57.8h12.5zM177 58.8h-29V45.3h28.4V34.7H148V22.1h29V11.6h-41.5v57.8H177zm268.7 244.1c58.3 0 105.6-46.7 105.6-104.3S504 94.1 445.8 94.1s-105.6 46.7-105.6 104.3c0 57.8 47.2 104.5 105.5 104.5zm0-167c35 0 63.3 28 63.3 62.6s-28.3 62.6-63.3 62.6-63.3-28-63.3-62.6c.1-34.5 28.4-62.6 63.3-62.6zm-118.8 62.5c0-57.6-47.2-104.4-105.5-104.4s-105.6 46.7-105.6 104.3S163 302.7 221.3 302.7c58.4.2 105.6-46.5 105.6-104.3zm-168.7 0c0-34.6 28.3-62.6 63.3-62.6s63.3 28 63.3 62.6-28.3 62.6-63.3 62.6c-35 .1-63.3-28-63.3-62.6zm-116 34h49.7v-90.5c0-21.1-17.3-38.2-38.6-38.2H11.5v50.4h30.7v78.3zm0 12.7h49.7v49.4H42.2z"/></svg>