<?xml version="1.0" encoding="utf-8"?>
<!-- Generator: Adobe Illustrator 24.1.2, SVG Export Plug-In . SVG Version: 6.00 Build 0)  -->
<svg version="1.1" id="Layer_1" xmlns="http://www.w3.org/2000/svg" xmlns:xlink="http://www.w3.org/1999/xlink" x="0px" y="0px"
	 viewBox="0 0 550 407.9" style="enable-background:new 0 0 550 407.9;" xml:space="preserve">
<style type="text/css">
	.st0{fill:#FFFFFF;}
</style>
<path class="st0" d="M45,336.6c-17.7,0-30.6,12.5-30.6,30c0,17.5,12.9,30,30.6,30c4.8,0,9.6-1,13.9-3l4.7,5.4l8.7-7.1l-4.3-5
	c5.1-5.7,7.8-13,7.7-20.5C75.6,349,62.7,336.6,45,336.6z M59.9,377.6l-6.6-7.7l-8.7,6.9l6.6,7.7c-2,0.8-4,1-6.1,1
	c-10.8,0-17.7-8.2-17.7-19c0-10.8,6.9-19,17.7-19s17.8,8.1,17.8,19C62.8,370.4,61.8,374.3,59.9,377.6z"/>
<path class="st0" d="M128.5,371.9c0,8.1-4.4,13.6-13.4,13.6s-13.5-5.5-13.5-13.6v-34.3H89v34.9c0,14.3,8.3,24.2,26.3,24.2
	s26.1-9.8,26.1-24.2v-34.7h-12.6L128.5,371.9z"/>
<polygon class="st0" points="157.1,395.5 198.5,395.5 198.5,384.8 169.5,384.8 169.5,371.3 197.8,371.3 197.8,360.8 169.5,360.8 
	169.5,348.1 198.5,348.1 198.5,337.6 157.1,337.6 "/>
<path class="st0" d="M234.9,360c-6.8-1.5-11.7-2.8-11.7-6.7c0-3.5,3-5.9,8.6-5.9c6.2,0,12.1,2.2,16.8,6.3l6.9-9
	c-5.9-5.3-13.5-8.1-22.8-8.1c-13.8,0-22.2,7.8-22.2,17.5c0,13,12.2,15.6,21.8,17.7c6.8,1.5,11.8,3.1,11.8,7.3
	c0,3.3-3.4,6.6-10.1,6.6c-7,0-13.8-2.8-18.6-7.8l-6.9,9.4c5.5,5.4,13.7,9.1,24.8,9.1c15.7,0,23.4-8,23.4-18.5
	C256.9,365.1,244.5,362.2,234.9,360z"/>
<polygon class="st0" points="265.4,348.4 282.6,348.4 282.6,395.5 295.1,395.5 295.1,348.4 312.1,348.4 312.1,337.6 265.4,337.6 "/>
<rect x="324.5" y="337.6" class="st0" width="12.5" height="57.9"/>
<path class="st0" d="M380.6,336.6c-17.7,0-30.6,12.5-30.6,30c0,17.5,12.9,30,30.6,30s30.7-12.5,30.7-30
	C411.3,349,398.5,336.6,380.6,336.6z M380.6,385.6c-10.8,0-17.7-8.2-17.7-19s6.9-19,17.7-19s17.8,8.1,17.8,19
	S391.4,385.6,380.6,385.6z"/>
<polygon class="st0" points="464.4,375 437.3,337.6 424.5,337.6 424.5,395.5 436.9,395.5 436.9,356.5 464.9,395.5 476.9,395.5 
	476.9,337.6 464.4,337.6 "/>
<path class="st0" d="M515.1,360c-6.8-1.5-11.7-2.8-11.7-6.7c0-3.5,3-5.9,8.6-5.9c6.2,0,12.2,2.2,16.8,6.3l6.9-9
	c-5.9-5.3-13.5-8.1-22.8-8.1c-13.8,0-22.2,7.8-22.2,17.5c0,13,12.4,15.6,21.8,17.7c6.8,1.5,11.8,3.1,11.8,7.3
	c0,3.3-3.4,6.6-10.1,6.6c-7,0-13.8-2.8-18.6-7.8l-6.9,9.4c5.5,5.4,13.7,9.1,24.8,9.1c15.7,0,23.4-8,23.4-18.5
	C537.1,365.1,524.7,362.2,515.1,360z"/>
<polygon class="st0" points="25.1,69.4 37.6,69.4 37.6,22.4 54.7,22.4 54.7,11.6 8,11.6 8,22.4 25.1,22.4 "/>
<polygon class="st0" points="79.5,45.1 107.2,45.1 107.2,69.4 119.7,69.4 119.7,11.6 107.2,11.6 107.2,34.2 79.5,34.2 79.5,11.6 
	67,11.6 67,69.4 79.5,69.4 "/>
<polygon class="st0" points="177,58.8 148,58.8 148,45.3 176.4,45.3 176.4,34.7 148,34.7 148,22.1 177,22.1 177,11.6 135.5,11.6 
	135.5,69.4 177,69.4 "/>
<path class="st0" d="M445.7,302.9c58.3,0,105.6-46.7,105.6-104.3S504,94.1,445.8,94.1s-105.6,46.7-105.6,104.3l0,0
	C340.2,256.2,387.4,302.9,445.7,302.9z M445.7,135.9c35,0,63.3,28,63.3,62.6s-28.3,62.6-63.3,62.6s-63.3-28-63.3-62.6l0,0
	C382.5,164,410.8,135.9,445.7,135.9L445.7,135.9z"/>
<path class="st0" d="M326.9,198.4c0-57.6-47.2-104.4-105.5-104.4s-105.6,46.7-105.6,104.3s47.2,104.4,105.5,104.4l0,0
	C279.7,302.9,326.9,256.2,326.9,198.4z M158.2,198.4c0-34.6,28.3-62.6,63.3-62.6s63.3,28,63.3,62.6s-28.3,62.6-63.3,62.6l0,0
	C186.5,261.1,158.2,233,158.2,198.4L158.2,198.4L158.2,198.4z"/>
<path class="st0" d="M42.2,232.4h49.7v-90.5c0-21.1-17.3-38.2-38.6-38.2H11.5v50.4h30.7V232.4z"/>
<rect x="42.2" y="245.1" class="st0" width="49.7" height="49.4"/>
</svg>
