<svg id="Layer_1" data-name="Layer 1" xmlns="http://www.w3.org/2000/svg" viewBox="0 0 180 180"><defs><style>.cls-1{fill:#fff}</style></defs><path class="cls-1" d="M92 111.08c-2.36 1.11-.64 4.94 1.62 5.08s5.73.27 5.73-2 .12-6.62-7.35-3.08zm2.55-40.52c2.72.19 4.78-.22 4.78-2.66 0-2.71-2.16-3.5-5.4-3.5s-2.1 5.97.62 6.16zM76.07 82.73a6.45 6.45 0 0 0 .39 6.93c1.41 2.12 7.43 1.87 8.1.47s-.16-5.13-1.27-6.69-6.17-2.68-7.22-.71zm-5.53-7.63c1.41-1.13.81-.43.95-3.26s-1.66-3.53-1.66-3.53c-2 .71-3.68 1.84-3.11 3.82s2.4 4.1 3.82 2.97zm-2.7 23.74c-2.09-1.56-1 5.94 1.27 6.08s4.81-.14 4.81-2.41-3.6-1.82-6.08-3.67z"/><path class="cls-1" d="M90 10.9L20.61 50.23v78.64L90 168.19l69.39-39.32V50.23zm50.47 83.24a2.46 2.46 0 0 1-3.05.53 11.64 11.64 0 0 0-5.43-2.2 47.25 47.25 0 0 1-5.31-1 5.28 5.28 0 0 0-3.47.34.52.52 0 0 0-.26.35c-.15 1.13-.26 2.26-.43 3.38a6.85 6.85 0 0 1-.45 1.23 4.71 4.71 0 0 1 2.71.09 3.93 3.93 0 0 1 2.49 2.58c.1.31.08.67.17 1a.62.62 0 0 0 .35.39 14.91 14.91 0 0 0 4.65.67 5.69 5.69 0 0 1 2.36.43 2.87 2.87 0 0 1 1.5 3.08 7.32 7.32 0 0 1-1.9 3.69 2.36 2.36 0 0 1-2.32.43c-.08 0-.09-.22-.17-.29a2.23 2.23 0 0 0-.41-.27l-.13.09c0-.24 0-.48.08-.73l-.43-.35h-.46l.11.42-.53-.42v-.31c0-.04-.36-.21-.51-.36a.79.79 0 0 1-.21-.51c-.34-.22-.82-.37-1-.68a3 3 0 0 0-1.14-.91 8.69 8.69 0 0 0-1.41-.67.52.52 0 0 0-.43.08 6.2 6.2 0 0 1-3 1.33 3.74 3.74 0 0 1-3.29-1.08 5.82 5.82 0 0 1-1.07-1.69c-.43.67-.87 1.27-1.2 1.91-.1.18 0 .53.16.77.26.58.54 1.14.84 1.71a16.35 16.35 0 0 0 2.82 3.83 31.21 31.21 0 0 0 4.43 3.93 17.24 17.24 0 0 0 3.58 1.62c1.43.58 2.25 2.2.81 3.5a17.12 17.12 0 0 1-2.38 1.86 9.72 9.72 0 0 1-2.77 1.3c-1.32.32-2.35-.31-2.61-2.07h.17c-.13-.49-.27-1-.46-1.74l-.79-1.32c-.25-.4-.55-.77-.76-1.19a15.59 15.59 0 0 0-2-2.52 2.92 2.92 0 0 1-.32-.67 1.35 1.35 0 0 1-.41-.28c-.39-.55-.74-1.13-1.13-1.68-.6-.83-1.23-1.65-1.88-2.53-.32.37-.66.73-1 1.13-.88 1.14-1.72 2.3-2.61 3.42a.61.61 0 0 0 0 .84 24.72 24.72 0 0 0 3.51 4.25 6.54 6.54 0 0 0 2 1.19 3.39 3.39 0 0 1 1.13 5.78 6.38 6.38 0 0 1-2.67 1.68 3 3 0 0 1-3.73-2.07 5.13 5.13 0 0 0-.5-1.13 3.3 3.3 0 0 1-.19.78 3.93 3.93 0 0 1-.78 1.17 7.65 7.65 0 0 1-4.64 2 3.2 3.2 0 0 1-2.68-1.31 3.42 3.42 0 0 1-.66-2.68c.06-.64 0-1.3 0-1.94a1.07 1.07 0 0 0 0-.51 6.25 6.25 0 0 1-.26-1c-.06-.69-.44-1-1.1-.91l-2.32.46c.32 1.27.59 2.45.92 3.6s.65 2.31 1.06 3.43c.49 1.34 1 2.66 1.63 3.95a10.15 10.15 0 0 0 1.17 1.76 3.43 3.43 0 0 1 .68 1.78 1.85 1.85 0 0 1-1.37 1.82 26.06 26.06 0 0 1-3.22 1 9.51 9.51 0 0 1-2.44.2 1.85 1.85 0 0 1-1.73-2.28 7.84 7.84 0 0 1 .61-2 10.28 10.28 0 0 0 .7-4.87c0-1.4-.1-2.81-.26-4.2a8.35 8.35 0 0 0-1.11-3.84l-2.79.45c.24 1.57.41 3.17.75 4.73a18.09 18.09 0 0 0 1.19 3.11 3.3 3.3 0 0 1 .27 2.51 2.69 2.69 0 0 1-2 1.65 9.15 9.15 0 0 1-4.29 0 2.33 2.33 0 0 1-1.57-1.92.78.78 0 0 1 .18-.38 3.29 3.29 0 0 1 .14-.95c.18-.37.5-.68.7-1a5.36 5.36 0 0 0 .59-1.29 25.63 25.63 0 0 0 .34-6.1l-1.3-.22-4.48-.76a3.56 3.56 0 0 0-.21.5c-.27 1.1-.53 2.21-.79 3.32a4.7 4.7 0 0 0 .42 3 3.17 3.17 0 0 1-.28 3.41 2.43 2.43 0 0 1-1.34.78 6 6 0 0 1-3.68-.34 4.78 4.78 0 0 1-2.33-1.81h-.15c0 .67-.06 1.34 0 2 0 .92.18 1.85.23 2.78s-.4 1.17-1.2 1a20 20 0 0 1-2.13-.64 25.67 25.67 0 0 1-2.66-1.1c-1.43-.72-1.23-2-.28-3a16.64 16.64 0 0 0 3.11-4c.7-1.26 1.28-2.6 1.92-3.89.42-.86.9-1.68 1.29-2.55a4 4 0 0 0 .11-1c0-.14.21-.31.17-.39-.14-.3-.09-.77-.72-.79-.1.41-.17.84-.3 1.25a6.08 6.08 0 0 1-.63 1.67c-.36.54-.66 1.21-1.38 1.42a5.45 5.45 0 0 1-1.56.37 4.49 4.49 0 0 1-4.21-3.53 2.56 2.56 0 0 1 1.86-2.8 3.46 3.46 0 0 0 2.18-.9c.27-.28.33-.54 0-.76a13.62 13.62 0 0 1-2.87-2.7 11.11 11.11 0 0 0-1-.95c-.55-.52-.94 0-1.26.28-.68.53-1.27 1.16-1.89 1.75-1 1-2.05 2-3.05 3a13.78 13.78 0 0 0-1.74 1.85 14.42 14.42 0 0 0-1.19 2.47 6.17 6.17 0 0 1-1.33 2.14 2.23 2.23 0 0 1-2.09.39 6.54 6.54 0 0 1-2.64-1.84 15.27 15.27 0 0 1-1.37-1.42 2.46 2.46 0 0 1 .07-3.32 4.24 4.24 0 0 0 .45-.67 1.83 1.83 0 0 1-2.61-.42 6.41 6.41 0 0 1-.71-1.07 6.53 6.53 0 0 1-1-3.55 2.09 2.09 0 0 1 1.63-1.84c.85-.21 1.73-.27 2.59-.41a13.4 13.4 0 0 0 4.52-1.86c.92-.52.84-.5.42-1.48a4.44 4.44 0 0 1-.33-2.5.48.48 0 0 0-.13-.35 6.34 6.34 0 0 1-2.06-5.16 2.24 2.24 0 0 1 1.62-1.77c.52-.09 1-.13 1.59-.2-.06-.44-.13-1-.21-1.63l-.19.49h-.58a1 1 0 0 0-.05-.14 3.85 3.85 0 0 1-.73.33c-1 .22-2.11.41-3.17.62a7.34 7.34 0 0 1-1.78.42c-.95-.07-1.59.68-2.47.72h-.38l-1.38.87-1.93 1.25a3.28 3.28 0 0 1-1.89.55 1.28 1.28 0 0 1-1-.92 17.18 17.18 0 0 1-.3-4.47v-.86c.08-1.32.81-1.57 1.85-1.53a8.85 8.85 0 0 1 1.93.45 8.58 8.58 0 0 0 2.53.4 26 26 0 0 0 4.23-.55 18.94 18.94 0 0 0 3.82-1.1c.7-.29.62-.83.73-1.31a14.89 14.89 0 0 0 .22-2l-2.4-.3a4.74 4.74 0 0 1-.5-.15c-.07 0-.16-.05-.2 0-.34.26-.59.21-.76-.19 0 0-.13-.07-.32-.14l.25.41h-2.55l.13-.36h-.09a3.82 3.82 0 0 1-.31.47 1.47 1.47 0 0 1-1.48.39 3 3 0 0 0-2.71.71 1.86 1.86 0 0 1-1.65.24c-1.39-.2-1.78-1.31-1.74-2.57a6.44 6.44 0 0 1 1.25-3.6 3 3 0 0 1 3.91-.89 11.21 11.21 0 0 0 4.61 1.44c1.39.09 2.77.23 4.15.36.33 0 .57 0 .6-.42a18.58 18.58 0 0 1 1.16-4.12c.21-.7.31-1.42.48-2.13.08-.33.19-.65.3-1a2.12 2.12 0 0 0-1.91.38 4.46 4.46 0 0 1-1.38.59 4.11 4.11 0 0 1-1.77.07 3.63 3.63 0 0 1-2.81-2.39c-.17-.56-.38-1.1-.67-1.91-.66-.14-1.72-.4-2.79-.58-.58-.09-1.19 0-1.79-.08-.14 0-.27-.14-.4-.11a4 4 0 0 1-1-.12 1.43 1.43 0 0 1-.87-2c.48-1.29 1-2.58 1.5-3.85a1.6 1.6 0 0 1 2.76-.35c.8.88 1.56 1.78 2.42 2.59a3.55 3.55 0 0 0 2 1 .37.37 0 0 0 .25-.07 3.25 3.25 0 0 1 3.48-.63 4.57 4.57 0 0 1 2.55 2.36c.4.85.66 1 1.62.82.37-.06.74-.16 1.13-.25v-.2A4.73 4.73 0 0 0 60.08 68a15.14 15.14 0 0 1 1.06-2c.38-.55.1-.85-.27-1.16-1.15-1-2.33-1.88-3.45-2.87A13.17 13.17 0 0 0 54 60a3.52 3.52 0 0 0-1-.13c.05-.2.09-.36.13-.56-.86.61-1 .51-1.68 0a1.43 1.43 0 0 1-.5-1.77 6.88 6.88 0 0 1 4-4.13c1.26-.47 2.16 0 2.69 1.45a12.52 12.52 0 0 0 3 4.44c.76.77 1.56 1.5 2.35 2.24.21.2.44.38.66.57a.45.45 0 0 0 .63 0c.86-.58 1.75-1.09 2.6-1.67.3-.2.67-.43.49-.95-.07-.19.11-.48 0-.67a3.32 3.32 0 0 0-.61-1c-.64-.7-1.34-1.35-2-2s-1.38-1.64-2.17-2.34a13.35 13.35 0 0 0-2.29-1.55c-.68-.39-1.49-.57-2.13-1a2.13 2.13 0 0 1-.56-3.38 9.09 9.09 0 0 1 3.7-2.71 2.87 2.87 0 0 1 2.33-.13 2.21 2.21 0 0 1 1.42 1.78 14.38 14.38 0 0 0 1.91 6.14c.77 1.34 1.64 2.63 2.49 3.93a2.27 2.27 0 0 0 .54.53c.53.43.84.35 1.37-.29a15.87 15.87 0 0 1-.88-1.88 3 3 0 0 1 .26-2.77 2.53 2.53 0 0 1 2.82-.92 3.11 3.11 0 0 1 2.28 1.88 3 3 0 0 0 .23.39 6.21 6.21 0 0 1 2.73-2.5c-.23-.93-.47-1.88-.72-2.82A28.41 28.41 0 0 0 76.54 44a9.37 9.37 0 0 0-.92-1.37 6.53 6.53 0 0 1-.91-1.51 1.69 1.69 0 0 1 1-2.22 10.53 10.53 0 0 1 2.5-.73 14.21 14.21 0 0 1 2.61 0 2.56 2.56 0 0 1 1 .26c.7.31.89 1 .69 2-.1.49-.46.91-.6 1.4a13.07 13.07 0 0 0-.39 2 11.59 11.59 0 0 0 .31 3.89c.17.91.32 1.83.53 2.74a1.46 1.46 0 0 0 .42.64 16.44 16.44 0 0 0 1.31.9.9.9 0 0 0 .57.18c.48 0 1-.14 1.44-.14s.57-.29.52-.67c-.14-1-.26-1.93-.42-2.89-.21-1.26-.45-2.51-.68-3.76a5.56 5.56 0 0 0-.3-1.08c-.21-.49-.11-1.08-.49-1.52a2.72 2.72 0 0 1-.27-.44 10.4 10.4 0 0 1-1.12-2.07c-.41-1.38 0-2 1.24-2.34a9.77 9.77 0 0 1 4.42-.33c1.43.22 1.6 1.48 1.25 2.58a16.16 16.16 0 0 0-.78 2.6 14 14 0 0 0-.08 3c.11 1.4.3 2.79.52 4.17.14.84.4 1.67.58 2.37l4.33.88a5.61 5.61 0 0 0-.11-1.1 3.06 3.06 0 0 1 1.8-3.63 4.55 4.55 0 0 1 4 .33 2.74 2.74 0 0 1 1.66 1.86 4 4 0 0 0 .35-.55c.35-.86.74-1.71 1-2.59a8.42 8.42 0 0 0 .48-4.55 9.35 9.35 0 0 1-.39-1.92 2 2 0 0 1 1.19-2.16 2.66 2.66 0 0 1 1.84.15 24 24 0 0 1 3.8 1.71 1.88 1.88 0 0 1 1 2.7 20.14 20.14 0 0 1-1.44 2.13c-.16.21-.35.41-.57.66.46.26.88.47 1.27.72a12.43 12.43 0 0 1 1.69 1.13 10.87 10.87 0 0 1 1.28 1.51 2.32 2.32 0 0 1-.32 3.38c-.55.46-1.2.79-1.76 1.23a15.4 15.4 0 0 0-1.34 1.21c-.85.84-1.68 1.68-2.5 2.53a4.28 4.28 0 0 0-.46.71c2 1.24 4 2.26 5.71 4 1.37-1.28 2.81-2.61 4.23-3.95a14.48 14.48 0 0 0 2-2.9 2.62 2.62 0 0 1 3.47-.91 3.91 3.91 0 0 1 1.84 1.76 2.17 2.17 0 0 1-1.39 3.27c-.6.17-1.16.49-1.76.68a5 5 0 0 0-1.73.65c-.74.58-1.56 1.07-2.26 1.69-.85.76-1.63 1.61-2.43 2.43-.24.24-.1.43.15.52a6 6 0 0 0 4 0 13.43 13.43 0 0 0 3.33-1.82c1.2-.82 2.27-1.83 3.41-2.75a8.87 8.87 0 0 0 2.14-3.08 1.92 1.92 0 0 1 3.31-.42 27.12 27.12 0 0 1 2.55 3.42 4.88 4.88 0 0 1 .51.92 1.41 1.41 0 0 1-.44 1.54 2.48 2.48 0 0 1-1.6.68c-.29 0-.62.38-.88-.09 0 0-.3 0-.31.06-.13.52-.67.29-.86.47l-.67-.15v.18h.37s0 .09-.07.09c-.88.38-1.76.74-2.63 1.14a17.17 17.17 0 0 0-2.65 1.4c-1.41 1-3.05 1.68-4.19 3.05-.43.53-.88 1-1.35 1.52a.71.71 0 0 0-.1.91 7.22 7.22 0 0 0 1 1.52c.12.13.6 0 .86-.07a8.89 8.89 0 0 1 1.23-.69c.57-.14.95-.61 1.51-.74.09 0 .16-.17.23-.27a18.22 18.22 0 0 1 1.65-2.31 3.13 3.13 0 0 1 2.56-1 4.07 4.07 0 0 1 2.26.85 4.3 4.3 0 0 1 1.71 3.46 3.63 3.63 0 0 1-.48 2.12 4 4 0 0 1-2.86 1.82 6.4 6.4 0 0 1-1.45 0c-.35 0-.68-.14-1-.19a1.78 1.78 0 0 0-.68-.07 16.65 16.65 0 0 0-2.62.35 4.43 4.43 0 0 1-.93.16c.13 1 .24 1.77.36 2.66.74-.07 1.34-.08 1.93-.18 1.53-.26 3.07-.49 4.57-.86a16.45 16.45 0 0 0 2.65-1 1.65 1.65 0 0 0 .71-.6 3.11 3.11 0 0 1 1.45-1 1.46 1.46 0 0 1 1.69.56 12.31 12.31 0 0 1 1.18 2.17 8.67 8.67 0 0 1 .46 2.09 2 2 0 0 1-2.32 2.35c-1-.07-1.89-.44-2.85-.57a26.22 26.22 0 0 0-2.94-.19c-.88 0-1.76 0-2.64.07s-1.45.2-2.18.29h-.77a1.71 1.71 0 0 0 .39 1.73 11.71 11.71 0 0 0 3.58 1.88 18.37 18.37 0 0 0 3.77.49c1.3 0 2.62-.11 3.93-.18 0 0 .09 0 .13-.06.58-.26 1.16-.49 1.72-.79a2.17 2.17 0 0 1 3.26 1.42c.18 1.11.6 2.18.74 3.3a4.46 4.46 0 0 1-.33 3.31z"/><path class="cls-1" d="M112.45 86.48c-3.14-.63-3.24 9.15-.53 9.34s3.56-3.4 3.56-6.44-.4-2.38-3.03-2.9zM107 117.34a.48.48 0 0 0-.43-.1c-.39.23-.74.51-1.17.82.56.65 1.07 1.33 1.66 1.91 1 .91 2 1.76 3 2.65a2.24 2.24 0 0 0-.16-.57c-.96-1.57-1.9-3.15-2.9-4.71zm-11.19-29.6a6.45 6.45 0 0 0 .38 6.92c1.42 2.12 6.15.13 6.82-1.27s1.12-3.38 0-5-6.15-2.63-7.2-.65z"/></svg>