<?xml version="1.0" encoding="utf-8"?>
<!-- Generator: Adobe Illustrator 21.0.2, SVG Export Plug-In . SVG Version: 6.00 Build 0)  -->
<svg version="1.1" id="Layer_1" xmlns="http://www.w3.org/2000/svg" xmlns:xlink="http://www.w3.org/1999/xlink" x="0px" y="0px"
	 viewBox="0 0 551.6 607.6" style="enable-background:new 0 0 551.6 607.6;" xml:space="preserve">
<style type="text/css">
	.st0{clip-path:url(#SVGID_2_);fill:#FFFFFF;}
</style>
<g>
	<defs>
		<rect id="SVGID_1_" x="24.7" y="13.2" width="502.2" height="569.5"/>
	</defs>
	<clipPath id="SVGID_2_">
		<use xlink:href="#SVGID_1_"  style="overflow:visible;"/>
	</clipPath>
	<path class="st0" d="M291.3,394.7c-2.9,0.4-9.8,1.1-10.5-1.1c-0.4-1.4,1.8-5.4,6.9-7.2s9-0.4,10.1,0.7l14.1-10.5
		c-4.7-6.1-12.6-9.4-21.7-8.7l-3.3-9.4l-16.6,6.1l3.6,9.4c-8.7,6.1-13,16.3-9.8,25.7c4,10.5,13.7,14.8,29.6,12.6
		c10.1-1.4,12.6,0.4,12.6,0.4c0.4,1.4-1.8,5.4-6.9,7.2c-5.1,1.8-9,0.4-10.1-0.7l-14.1,10.5c4.7,6.1,12.6,9.4,21.7,8.7l3.3,9.4
		l16.6-6.1l-3.6-9.4c8.7-6.1,13-16.3,9.8-25.7C319.5,396.5,308.7,392.6,291.3,394.7"/>
	<path class="st0" d="M317,468.4c-36.1,13-75.9-5.8-88.5-41.6c-13-36.1,5.8-75.9,41.6-88.5c36.1-13,75.9,5.8,88.5,41.6
		C371.9,415.7,353.1,455.4,317,468.4 M266.7,329c-41.2,14.8-62.1,60-47.3,101.2s60,62.1,101.2,47.3c41.2-14.8,62.1-60,47.3-101.2
		C353.1,335.5,307.9,314.1,266.7,329"/>
	<path class="st0" d="M172.8,431.9c8.2,0,14.8,6.6,14.8,14.8s-6.6,14.8-14.8,14.8c-8.2,0-14.8-6.6-14.8-14.8
		S164.6,431.9,172.8,431.9"/>
	<path class="st0" d="M405.1,348.1c8.2,0,14.8,6.6,14.8,14.8s-6.6,14.8-14.8,14.8c-8.2,0-14.8-6.6-14.8-14.8S397,348.1,405.1,348.1"
		/>
	<path class="st0" d="M501.6,296.1l-41.2-113.8h-1.1l-80.6,29.3L50,330.8v-11.9l418.4-151l33.2,92.1V296.1z M501.6,410.3
		c-7.2,7.2-12.3,15.5-16.3,24.2L275.1,553.3L64.4,434.1l-6.9-19.5c29.6-17.3,45.5-50.9,40.1-84.6l288-103.7
		c18.1,30.7,53.8,47.3,89.2,41.2l26.7,73.7V410.3z M50,283.1l176-126.5c24.9,23.8,61.8,29.6,92.9,14.5l26,35.8L50,313.4V283.1z
		 M50,251.3L286.6,80.7l83.5,116.7l-11.6,4L283,96.3l-17.7,12.6L215.4,145L50,264.6V251.3z M275.8,13.2L24.7,155.5v284.7
		l251.1,142.4l251.1-142.4V155.5L275.8,13.2z"/>
</g>
</svg>
