<svg id="Layer_1" xmlns="http://www.w3.org/2000/svg" xmlns:xlink="http://www.w3.org/1999/xlink" viewBox="0 0 551.6 607.6"><style>.st0{clip-path:url(#SVGID_2_);fill:#fff}</style><defs><path id="SVGID_1_" d="M24.7 13.2h502.2v569.5H24.7z"/></defs><clipPath id="SVGID_2_"><use xlink:href="#SVGID_1_" overflow="visible"/></clipPath><path class="st0" d="M291.3 394.7c-2.9.4-9.8 1.1-10.5-1.1-.4-1.4 1.8-5.4 6.9-7.2s9-.4 10.1.7l14.1-10.5c-4.7-6.1-12.6-9.4-21.7-8.7l-3.3-9.4-16.6 6.1 3.6 9.4c-8.7 6.1-13 16.3-9.8 25.7 4 10.5 13.7 14.8 29.6 12.6 10.1-1.4 12.6.4 12.6.4.4 1.4-1.8 5.4-6.9 7.2-5.1 1.8-9 .4-10.1-.7l-14.1 10.5c4.7 6.1 12.6 9.4 21.7 8.7l3.3 9.4 16.6-6.1-3.6-9.4c8.7-6.1 13-16.3 9.8-25.7-3.5-10.1-14.3-14-31.7-11.9"/><path class="st0" d="M317 468.4c-36.1 13-75.9-5.8-88.5-41.6-13-36.1 5.8-75.9 41.6-88.5 36.1-13 75.9 5.8 88.5 41.6 13.3 35.8-5.5 75.5-41.6 88.5M266.7 329c-41.2 14.8-62.1 60-47.3 101.2s60 62.1 101.2 47.3c41.2-14.8 62.1-60 47.3-101.2-14.8-40.8-60-62.2-101.2-47.3m-93.9 102.9c8.2 0 14.8 6.6 14.8 14.8s-6.6 14.8-14.8 14.8c-8.2 0-14.8-6.6-14.8-14.8s6.6-14.8 14.8-14.8m232.3-83.8c8.2 0 14.8 6.6 14.8 14.8s-6.6 14.8-14.8 14.8c-8.2 0-14.8-6.6-14.8-14.8s6.7-14.8 14.8-14.8"/><path class="st0" d="M501.6 296.1l-41.2-113.8h-1.1l-80.6 29.3L50 330.8v-11.9l418.4-151 33.2 92.1v36.1zm0 114.2c-7.2 7.2-12.3 15.5-16.3 24.2L275.1 553.3 64.4 434.1l-6.9-19.5c29.6-17.3 45.5-50.9 40.1-84.6l288-103.7c18.1 30.7 53.8 47.3 89.2 41.2l26.7 73.7v69.1zM50 283.1l176-126.5c24.9 23.8 61.8 29.6 92.9 14.5l26 35.8L50 313.4v-30.3zm0-31.8L286.6 80.7l83.5 116.7-11.6 4L283 96.3l-17.7 12.6-49.9 36.1L50 264.6v-13.3zM275.8 13.2L24.7 155.5v284.7l251.1 142.4 251.1-142.4V155.5L275.8 13.2z"/></svg>