<?xml version="1.0" encoding="utf-8"?>
<!-- Generator: Adobe Illustrator 21.0.2, SVG Export Plug-In . SVG Version: 6.00 Build 0)  -->
<svg version="1.1" id="Layer_1" xmlns="http://www.w3.org/2000/svg" xmlns:xlink="http://www.w3.org/1999/xlink" x="0px" y="0px"
	 viewBox="0 0 551.6 607.6" style="enable-background:new 0 0 551.6 607.6;" xml:space="preserve">
<style type="text/css">
	.st0{clip-path:url(#SVGID_2_);fill:#FFFFFF;}
</style>
<g>
	<defs>
		<rect id="SVGID_1_" x="24.7" y="13.2" width="502.2" height="569.2"/>
	</defs>
	<clipPath id="SVGID_2_">
		<use xlink:href="#SVGID_1_"  style="overflow:visible;"/>
	</clipPath>
	<path class="st0" d="M296.7,290.7c2.2-1,26.7-2.5,26.7-2.5s-0.6-3.2-2.4-4.5c-1.9-1.3-17-11.9-22.2-11.9c-5.3,0-41,6-43.4,7.6
		c-2.4,1.6-9.3,7.6-10.1,9.1c-0.8,1.4-3,4.2-1.6,6.9c15.6,2.3,42.2,9.3,50.3,9.3s21.3-3.8,21.3-3.8s-0.7-1.9-2.5-2.7
		c-1.9-0.8-19.1-4.2-19.1-4.2S294.5,291.7,296.7,290.7 M502.1,400.7l-31.2-17.4c0,0-14.2-3.2-20.1-4.5c-5.9-1.3-18.2-7.7-18.2-7.7
		s-0.4,2.9,0.1,4.1c0.4,1.2,13.2,16.3,13.2,16.3s18,11.5,24.6,15.8c6.7,4.3,25.6,24.4,25.6,24.4L423.4,473l-23.7-18.4l-22.7-30.2
		l-9-7.3l-5.8,0.5l20.5,47l19.5,20.5l-119.2,67.7c0,0-0.3-11-0.2-16.2c0.2-5.2-8.5-53.9-8.5-53.9L274,455l-4.1-3.8
		c0,0-9,22.9-10.7,36.9c-1.7,13.9-4.6,56.8-4.6,56.8l-137.8-78.2c0,0,14-27.2,21.3-35.2c7.3-8,39.8-42.6,39.8-42.6s-3.3-1.5-6.2-1
		c-3.1,0.4-13.3,5.8-13.3,5.8s-33.1,22-44.4,31.9c-11.3,9.9-23.2,26.4-23.2,26.4l-41.4-23.5v-35.2c0,0,101.5-48.8,126-66.7
		c24.5-18,61.6-55.4,67.4-58.2c5.8-2.8,53-7.6,53-7.6s12.7-1.1,21.4,4.1c6.5,3.9,66,37.2,66,37.2l118.7,78.2V400.7z M420.7,125
		c-8.1,34.5-38,47.7-59.3,47.7c0,18.6-15.7,39.8-40.5,39.8h-36.1c-1.3,3,36.6,15.9,35,20.3c-2.9,8.2-4.8,18.1-5.4,20.1l-14.2-2.8
		l-42.4,3.6c-3-7.1-6.3-32.3-9-40.4c-9.5-1.2-17.8-5.2-23.4-11.4c-4.2-4.6-6.7-10.1-7.1-15.7c-19.7,0-32.1-9.4-32.6-27.6
		c-2.4,0.4-10.3,0.6-12.8,0.6c-23.4,0-48.9-10.2-57.8-25.3l160.7-91.2L420.7,125z M526.9,440.1V155.5L275.8,13.2L24.7,155.5v284.6
		l251.1,142.3L526.9,440.1z"/>
</g>
</svg>
