<svg id="Layer_1" xmlns="http://www.w3.org/2000/svg" xmlns:xlink="http://www.w3.org/1999/xlink" viewBox="0 0 551.6 607.6"><style>.st0{clip-path:url(#SVGID_2_);fill:#fff}</style><defs><path id="SVGID_1_" d="M24.7 13.2h502.2v569.2H24.7z"/></defs><clipPath id="SVGID_2_"><use xlink:href="#SVGID_1_" overflow="visible"/></clipPath><path class="st0" d="M296.7 290.7c2.2-1 26.7-2.5 26.7-2.5s-.6-3.2-2.4-4.5c-1.9-1.3-17-11.9-22.2-11.9-5.3 0-41 6-43.4 7.6-2.4 1.6-9.3 7.6-10.1 9.1-.8 1.4-3 4.2-1.6 6.9 15.6 2.3 42.2 9.3 50.3 9.3s21.3-3.8 21.3-3.8-.7-1.9-2.5-2.7c-1.9-.8-19.1-4.2-19.1-4.2s.8-2.3 3-3.3m205.4 110l-31.2-17.4s-14.2-3.2-20.1-4.5c-5.9-1.3-18.2-7.7-18.2-7.7s-.4 2.9.1 4.1c.4 1.2 13.2 16.3 13.2 16.3s18 11.5 24.6 15.8c6.7 4.3 25.6 24.4 25.6 24.4L423.4 473l-23.7-18.4-22.7-30.2-9-7.3-5.8.5 20.5 47 19.5 20.5L283 552.8s-.3-11-.2-16.2c.2-5.2-8.5-53.9-8.5-53.9L274 455l-4.1-3.8s-9 22.9-10.7 36.9c-1.7 13.9-4.6 56.8-4.6 56.8l-137.8-78.2s14-27.2 21.3-35.2c7.3-8 39.8-42.6 39.8-42.6s-3.3-1.5-6.2-1c-3.1.4-13.3 5.8-13.3 5.8s-33.1 22-44.4 31.9c-11.3 9.9-23.2 26.4-23.2 26.4l-41.4-23.5v-35.2s101.5-48.8 126-66.7c24.5-18 61.6-55.4 67.4-58.2 5.8-2.8 53-7.6 53-7.6s12.7-1.1 21.4 4.1c6.5 3.9 66 37.2 66 37.2l118.7 78.2v20.4zM420.7 125c-8.1 34.5-38 47.7-59.3 47.7 0 18.6-15.7 39.8-40.5 39.8h-36.1c-1.3 3 36.6 15.9 35 20.3-2.9 8.2-4.8 18.1-5.4 20.1l-14.2-2.8-42.4 3.6c-3-7.1-6.3-32.3-9-40.4-9.5-1.2-17.8-5.2-23.4-11.4-4.2-4.6-6.7-10.1-7.1-15.7-19.7 0-32.1-9.4-32.6-27.6-2.4.4-10.3.6-12.8.6-23.4 0-48.9-10.2-57.8-25.3l160.7-91.2L420.7 125zm106.2 315.1V155.5L275.8 13.2 24.7 155.5v284.6l251.1 142.3 251.1-142.3z"/></svg>