<svg id="Layer_1" data-name="Layer 1" xmlns="http://www.w3.org/2000/svg" viewBox="0 0 180 180"><defs><style>.cls-1{fill:#fff;}</style></defs><path class="cls-1" d="M35.13,58.89v60.05c6.6.13,13.45-.21,18.29-1.4l.13-.05,8.33-2.27a2.29,2.29,0,0,0,1.29-.91c1.31-2,5.28-6.32,13.57-4.21,1.33.33,2.71.61,4.09.84a6.34,6.34,0,0,1,5.94-4.13h.88q.33-2.4.75-5.19a84.7,84.7,0,0,0-5-12.07A45,45,0,0,0,73.34,77.44S79.6,84,82.44,90.27c0,0-5.7,3.6-9.69-3.74-3.23-5.85-1.07-7.11-6.55-14.76a25,25,0,0,1,13.21,3.92c5.82,3.87,7.85,9.11,4.76,13l4.74,9.72c.62-3.81,1.37-8,2.27-12.46h.08c-7.14-5.07-6.33-15,1.67-24.38a44,44,0,0,1,20.51-13.12c-5.56,15.64-1.28,16.7-3.87,28.29S98.36,88.29,95.27,87.84a5.63,5.63,0,0,1-.7-.11c1.77-12.21,9.51-26.14,9.51-26.14C96,72.89,92.93,87,92.93,87a198.55,198.55,0,0,0-2.68,19.78,6.32,6.32,0,0,1,6.1,5.27c2,0,3.65-.07,4.88-.07h1a2.58,2.58,0,0,1,2.61,1.76c2.75-1.65,9.19-5.57,11.3-7.08,2.28-1.64,7.35-3.08,9.38-1.64a2.29,2.29,0,0,1,.82,2.68c-1.16,4.18-21.3,21.55-32.2,25.81-8.43,3.29-22.71-.53-28.46-2.32a2.35,2.35,0,0,0-2,.27l-4.33,2.86,30.22,17.12,54.54-30.9V58.89L89.67,28Z"/><path class="cls-1" d="M66.29,129.42c4.34,1.31,19.13,5.52,27.19,2.36,11.28-4.42,30.23-21.7,31-24.53.13-.46,0-.55-.07-.6-1-.74-5.14.19-7.17,1.63-2.52,1.81-10.69,6.7-12.38,7.75-.66,2.65-3.53,5.67-8.5,5.88-6.06.22-12.44.08-14.85,0v.45a1,1,0,0,1-1,1,1,1,0,0,1-1-1v-1.45a1,1,0,0,1,.3-.69.85.85,0,0,1,.7-.27c.09,0,8.15.31,15.71,0,4.85-.21,6.85-3.5,6.8-5.14,0-.79-.41-.89-.84-.89h-1c-4.7.14-15.71.36-25-2-6.86-1.76-10.16,1.4-11.56,3.41a4.22,4.22,0,0,1-2.37,1.68l-8.28,2.28-.1,0H53.9c-4.67,1.14-11.5,1.56-18.24,1.49l21.91,12.42,5.14-3.35A4.23,4.23,0,0,1,66.29,129.42Z"/><path class="cls-1" d="M89.47,11.07,20.08,50.4V129l69.39,39.32L158.86,129V50.4Zm59.74,112.39L89.67,157.2,30.13,123.46V56L89.67,22.24,149.21,56Z"/></svg>