<svg id="Layer_1" data-name="Layer 1" xmlns="http://www.w3.org/2000/svg" viewBox="0 0 180 180"><defs><style>.cls-1{fill:#fff}</style></defs><path class="cls-1" d="M90 51.91a36.4 36.4 0 0 0-26.61 11 37.68 37.68 0 0 0 0 53.22 36.43 36.43 0 0 0 26.61 11 37.64 37.64 0 0 0 0-75.27zM79.62 85.2L90 89.55V78.3a11.24 11.24 0 0 1 10.41 7 1.46 1.46 0 0 1 .07.19 7.55 7.55 0 0 1 .29.84c0 .13.07.27.11.41s.11.43.16.65.07.43.1.65l.06.43v2.03a1.34 1.34 0 0 1 0 .2c0 .25-.07.49-.11.74s0 .25-.06.38a10.92 10.92 0 0 1-1.1 3c-.11.21-.24.41-.37.61l-.2.34-.23.31a11.32 11.32 0 0 1-2.79 2.73l-.32.2c-.21.13-.43.27-.65.39l-.18.08a9.37 9.37 0 0 1-.85.4l-.19.07c-.28.1-.55.2-.84.29l-.42.11c-.21 0-.42.11-.64.15l-.66.1c-.14 0-.28 0-.42.06a8.83 8.83 0 0 1-.89 0h-.88a10.83 10.83 0 0 1-6.85-2.83 11.18 11.18 0 0 1-2.93-4.14 10.8 10.8 0 0 1 0-8.49zM74 105.53l4.68-4.68A16 16 0 1 0 90 73.56v-6.62a22.61 22.61 0 0 1 0 45.21 21.78 21.78 0 0 1-16-6.62zm19.86 17.38l-1.09-6.28A27.22 27.22 0 0 0 90 62.33V56a33.59 33.59 0 0 1 3.88 67z"/><path class="cls-1" d="M90 10.9L20.61 50.23v78.64L90 168.19l69.39-39.32V50.23zM90 131a40.11 40.11 0 0 1-29.28-12.13 41.46 41.46 0 0 1 0-58.56A40.07 40.07 0 0 1 90 48.14 41.41 41.41 0 0 1 90 131z"/></svg>