<svg id="Layer_1" data-name="Layer 1" xmlns="http://www.w3.org/2000/svg" viewBox="0 0 1367.69 188.27"><defs><style>.cls-1,.cls-2,.cls-3{fill:#fff}.cls-2{opacity:.9}.cls-3{opacity:.7}</style></defs><title>smarter-crowdsourcing-logo</title><path class="cls-1" d="M395.64 110.1l4.1-5.67a18.13 18.13 0 0 0 13.3 5.8c6 0 8.44-3 8.44-5.73 0-3.78-4.47-4.92-9.58-6.24-6.9-1.7-14.9-3.72-14.9-12.6 0-6.93 6.11-12.29 15.31-12.29 6.55 0 11.85 2.08 15.75 5.86l-4.22 5.48a17.09 17.09 0 0 0-12.16-4.79c-4.35 0-7.12 2.08-7.12 5.23s4.28 4.35 9.26 5.61c6.93 1.76 15.19 3.91 15.19 13 0 7-4.91 13-16.26 13-7.75.02-13.4-2.69-17.11-6.66zm82.73 5.9V84.84L465.46 116h-3.15l-12.86-31.16V116h-7.37V74h10.4l11.4 27.66L475.35 74h10.4v42zm52.06 0l-3.09-8h-19.28l-3.06 8h-8.38l16.48-42h9.2l16.51 42zM517.7 81.44l-7.56 20h15.12zM573.72 116l-9.33-15.69h-7.31V116h-7.37V74h18.46c8.32 0 13.74 5.42 13.74 13.17 0 7.5-4.92 11.53-10 12.35L582.23 116zm.63-28.86c0-4-3-6.68-7.18-6.68h-10.08v13.39h10.08c4.16 0 7.18-2.65 7.18-6.68zM604.92 116V80.49h-12.73V74H625v6.49h-12.71V116zm32.65 0V74h28.79v6.49h-21.42v10.9h21v6.49h-21v11.66h21.42V116zm66.66 0l-9.33-15.69h-7.3V116h-7.37V74h18.46c8.32 0 13.74 5.42 13.74 13.17 0 7.5-4.92 11.53-10 12.35L712.74 116zm.63-28.86c0-4-3-6.68-7.18-6.68H687.6v13.39h10.08c4.16 0 7.18-2.65 7.18-6.68zM746.71 95c0-12.92 9.64-21.74 22.05-21.74a19 19 0 0 1 16.89 9.45l-6.3 3.29a12.48 12.48 0 0 0-10.59-6.11c-8.32 0-14.49 6.36-14.49 15.19s6.18 15.18 14.49 15.18a12.34 12.34 0 0 0 10.59-6.11l6.3 3.21c-3.21 5-8.38 9.45-16.89 9.45-12.41-.03-22.05-8.81-22.05-21.81zm75.18 21l-9.33-15.69h-7.31V116h-7.37V74h18.46c8.32 0 13.74 5.42 13.74 13.17 0 7.5-4.92 11.53-10 12.35L830.4 116zm.63-28.86c0-4-3-6.68-7.18-6.68h-10.08v13.39h10.08c4.16 0 7.18-2.65 7.18-6.68zM841.87 95c0-12.54 8.88-21.74 21.49-21.74s21.49 9.2 21.49 21.74-8.88 21.74-21.49 21.74-21.49-9.16-21.49-21.74zm35.41 0c0-8.7-5.48-15.19-13.93-15.19S849.43 86.35 849.43 95s5.42 15.18 13.93 15.18 13.92-6.5 13.92-15.18zm51.87 21L921 85l-8.13 31H905l-12-42h8.25l8.19 32.39L918.06 74h5.86l8.69 32.39L940.74 74H949l-12 42zm31.07 0V74h15.63c13.11 0 22 8.7 22 21s-8.89 21-22 21zm30.05-21c0-8.13-5-14.56-14.43-14.56h-8.25v29h8.25c9.16.1 14.44-6.44 14.44-14.44zm18.29 15.1l4.1-5.67a18.13 18.13 0 0 0 13.29 5.8c6 0 8.44-3 8.44-5.73 0-3.78-4.47-4.92-9.58-6.24-6.87-1.7-14.93-3.72-14.93-12.6 0-6.93 6.11-12.29 15.31-12.29 6.55 0 11.85 2.08 15.75 5.86l-4.22 5.48a17.09 17.09 0 0 0-12.16-4.79c-4.35 0-7.12 2.08-7.12 5.23s4.28 4.35 9.26 5.61c6.93 1.76 15.19 3.91 15.19 13 0 7-4.91 13-16.26 13-7.75.02-13.36-2.69-17.07-6.66zm44.55-15.1c0-12.54 8.88-21.74 21.49-21.74s21.49 9.2 21.49 21.74-8.88 21.74-21.49 21.74-21.49-9.16-21.49-21.74zm35.41 0c0-8.7-5.48-15.19-13.93-15.19s-13.93 6.49-13.93 15.19 5.42 15.18 13.93 15.18 13.93-6.5 13.93-15.18zm20.99 4.46V74h7.43v25.2c0 6.68 3.72 11 10.77 11s10.71-4.35 10.71-11V74h7.44v25.39c0 10.46-6 17.39-18.15 17.39s-18.2-6.99-18.2-17.32zm75.62 16.54l-9.33-15.69h-7.31V116h-7.37V74h18.46c8.32 0 13.74 5.42 13.74 13.17 0 7.5-4.92 11.53-10 12.35l10.32 16.48zm.63-28.86c0-4-3-6.68-7.18-6.68h-10.08v13.39h10.08c4.16 0 7.18-2.65 7.18-6.68zm19.35 7.86c0-12.92 9.64-21.74 22.05-21.74a19 19 0 0 1 16.89 9.45l-6.3 3.21a12.48 12.48 0 0 0-10.59-6.11c-8.32 0-14.49 6.36-14.49 15.19s6.18 15.18 14.49 15.18a12.34 12.34 0 0 0 10.59-6.11l6.3 3.21c-3.21 5-8.38 9.45-16.89 9.45-12.41.05-22.05-8.73-22.05-21.73zm51.17 21V74h7.37v42zm51.93 0l-21.93-30v30h-7.37V74h7.56l21.53 29.18V74h7.37v42zm20.48-21c0-13.17 9.89-21.74 22.05-21.74a19.76 19.76 0 0 1 16.95 8.76l-6 3.4a13.38 13.38 0 0 0-10.9-5.61c-8.32 0-14.49 6.36-14.49 15.19s6.18 15.25 14.49 15.25a15.41 15.41 0 0 0 10-3.78V100h-12.54v-6.53h19.91v15.75a22.8 22.8 0 0 1-17.33 7.62c-12.25.01-22.14-8.62-22.14-21.84z"/><path class="cls-2" d="M94.53 107.13v53.57l47.26 26.78 47.27-26.78v-53.57l-47.27-26.78-47.26 26.78z"/><path class="cls-3" d="M189.06 0l-47.27 26.78v53.57l47.27 26.78 47.26-26.78V26.78L189.06 0zM0 107.92v53.57l47.27 26.78 47.26-26.78v-53.57L47.27 81.14 0 107.92z"/><path class="cls-2" d="M283.59 0l-47.27 26.78v53.57l47.27 26.78 47.26-26.78V26.78L283.59 0z"/></svg>