<svg xmlns="http://www.w3.org/2000/svg" viewBox="0 0 150.12 27.31"><defs><style>.cls-1,.cls-2,.cls-3{fill:#fff}.cls-1,.cls-3{fill-rule:evenodd}.cls-3{opacity:.5}</style></defs><g id="Layer_1" data-name="Layer 1"><path class="cls-1" d="M8 22.08H2.37a1.65 1.65 0 0 1-1.43-.78L.72 21a2.15 2.15 0 0 1-.18-1.61A2.53 2.53 0 0 1 .72 19c.32-.67.63-1.35 1-2s.59-1.12.87-1.69.38-.86.59-1.29.55-1.11.83-1.66c.07-.15.12-.3.19-.44.25-.51.51-1 .75-1.55A1 1 0 0 0 5 9.94V6a1.12 1.12 0 0 1 .22-.81A1.1 1.1 0 0 1 5.48 5a2.87 2.87 0 0 1 1.17-.17h2.83a2.38 2.38 0 0 1 .88.18 1 1 0 0 1 .57 1v3.81a2.57 2.57 0 0 0 .44 1.38c.13.23.23.47.34.71l.26.5c.21.44.43.87.64 1.3l.78 1.69c.21.43.43.84.64 1.26.08.18.16.36.25.53.31.64.64 1.27.91 1.92a3 3 0 0 1 .18 1 2.17 2.17 0 0 1-.68 1.51 1.32 1.32 0 0 1-1 .42H8zm-.1-6.2h3.53c.29 0 .39-.15.26-.42l-.57-1.13c-.08-.17-.13-.36-.21-.54-.3-.68-.62-1.36-.92-2-.1-.22-.21-.43-.3-.65a2.27 2.27 0 0 1-.24-.78V6.58c0-.4-.08-.49-.48-.48H6.85c-.38 0-.43 0-.43.41v3.3a2.26 2.26 0 0 1-.17 1.12c-.24.46-.4.94-.62 1.4-.29.66-.6 1.31-.9 2-.19.41-.39.82-.57 1.23a.38.38 0 0 0 0 .29c0 .06.17.1.26.1H7.9"/><path class="cls-2" d="M79.37 19.48A7 7 0 0 1 77 21.22a9.25 9.25 0 0 1-4 .78 6.67 6.67 0 0 1-4.91-1.86 6.48 6.48 0 0 1-1.89-4.83v-3.44A6.58 6.58 0 0 1 68 7.05a6.37 6.37 0 0 1 4.75-1.87 6.69 6.69 0 0 1 4.75 1.46 5.88 5.88 0 0 1 1.78 4v.06H75.7a3.35 3.35 0 0 0-.83-1.94 2.69 2.69 0 0 0-2-.65 2.56 2.56 0 0 0-2.13 1.05 4.3 4.3 0 0 0-.74 2.69v3.43a4.39 4.39 0 0 0 .8 2.74 2.65 2.65 0 0 0 2.23 1 6.37 6.37 0 0 0 1.64-.17 2.57 2.57 0 0 0 .94-.45v-2.54H73v-2.51h6.37zM95.18 15a6.83 6.83 0 0 1-1.92 5 6.66 6.66 0 0 1-5 1.95 6.65 6.65 0 0 1-7-6.93v-2.91a6.81 6.81 0 0 1 1.92-5 7.38 7.38 0 0 1 10 0 6.82 6.82 0 0 1 1.93 5zm-3.78-3a4.74 4.74 0 0 0-.83-2.87 3 3 0 0 0-4.67 0 4.76 4.76 0 0 0-.81 2.87v3a4.79 4.79 0 0 0 .82 2.9 2.78 2.78 0 0 0 2.36 1.12 2.72 2.72 0 0 0 2.31-1.12 4.79 4.79 0 0 0 .82-2.9zm11.59 5.31l.11.59h.07l.11-.55 3.24-11.94h3.97l-5.29 16.33h-4.09L95.84 5.41h3.95l3.2 11.9zm10.97 3.28h8.07v1.15h-9.41V5.41h1.34v15.18zm19.73-3.41h-7.47l-1.69 4.56h-1.39l6.2-16.33h1.27l6.15 16.33h-1.39zm-7-1.2h6.6L130 7.15h-.06zm12.57 5.76V5.41H144a6.49 6.49 0 0 1 4 1.07 3.79 3.79 0 0 1 1.42 3.23 3.53 3.53 0 0 1-.71 2.19 3.68 3.68 0 0 1-1.94 1.29 3.89 3.89 0 0 1 2.42 1.4 4 4 0 0 1 .94 2.61 4.15 4.15 0 0 1-1.42 3.36 5.79 5.79 0 0 1-3.8 1.18zm1.34-9h3.75a4.26 4.26 0 0 0 2.74-.78 2.74 2.74 0 0 0 1-2.29 2.71 2.71 0 0 0-1-2.32 4.92 4.92 0 0 0-3-.78h-3.49zm0 1.15v6.71h4.3a4.17 4.17 0 0 0 2.84-.89 3.09 3.09 0 0 0 1-2.48 3.22 3.22 0 0 0-.94-2.4 3.64 3.64 0 0 0-2.71-.94zM35.01 6.52h-5.64v15.27h-1.38V6.52h-5.63V5.35h12.65v1.17zm14.84 15.27h-1.4v-7.88h-9.4v7.88h-1.39V5.35h1.39v7.38h9.4V5.35h1.4v16.44zm13.26-7.88h-7.69v6.71h8.84v1.17H54.03V5.35H64.2v1.17h-8.78v6.21h7.69v1.18z"/><path class="cls-3" d="M5.89 24.23h8.45a1.56 1.56 0 0 1 .94.18 1.59 1.59 0 0 1 .72 1.42 1.55 1.55 0 0 1-1.58 1.48H1.7a1.53 1.53 0 0 1-1.32-.57 1.45 1.45 0 0 1 0-2 1.37 1.37 0 0 1 1.14-.54h4.37M1.54 0A1.37 1.37 0 0 0 .4.54a1.46 1.46 0 0 0 0 2 1.55 1.55 0 0 0 1.32.56h12.74a1.56 1.56 0 0 0 .82-2.9 1.58 1.58 0 0 0-.94-.2z"/></g></svg>