<?xml version="1.0" encoding="utf-8"?>
<!-- Generator: Adobe Illustrator 21.0.2, SVG Export Plug-In . SVG Version: 6.00 Build 0)  -->
<svg version="1.1" id="Layer_1" xmlns="http://www.w3.org/2000/svg" xmlns:xlink="http://www.w3.org/1999/xlink" x="0px" y="0px"
	 viewBox="0 0 551.6 607.6" style="enable-background:new 0 0 551.6 607.6;" xml:space="preserve">
<style type="text/css">
	.st0{clip-path:url(#SVGID_2_);fill:#FFFFFF;}
</style>
<g>
	<defs>
		<rect id="SVGID_1_" x="24.7" y="13.2" width="502.2" height="569.2"/>
	</defs>
	<clipPath id="SVGID_2_">
		<use xlink:href="#SVGID_1_"  style="overflow:visible;"/>
	</clipPath>
	<path class="st0" d="M447.4,238c0.4,6.4-9.8,21.5-27,26c-27.9,7.4-65.7,17.7-82.7,21.3c-12.5-7.9-38.2-17.6-42.7-19.4
		c0.3,3,0.6,3-1.2,6.2c4.3,2.2,37.8,28.1,40.7,30.8c3.6,3.4,8.1,46.8,10.6,51.6c5.8,6.8,23.1,17.9,23.3,18.6
		c2.5,8.2,22,29.4,17.4,34.6c-0.8-1.6-2.5-3.2-4.4-3.9c-0.4,2.8-3.1,4-5.8,1.7c5.3-1.1-2.4-9.5-11.8-27.7c-0.3-0.1-1.9,0.7-2.1,0.5
		c-0.6-0.4-23-20.4-23.7-21c-0.9-0.8-2.4,0.1-2.7-0.7c-3-8.5,0-36.6-5.4-46.2c-0.2-0.3-2.9,0.2-3.5-0.3
		c-11.4-9.4-27.8-23.3-38.9-28.6c-0.5,0.6-1.9,2.1-2.1,2.3c5.1,6.8,36.2,48.3,35.4,54.6c0,0.2-2.5,1.6-2.4,2
		c-5.2,20.3-11.6,48.1-10,52.6c2.4,4.4,12.7,28.2,17.4,33c0.6,0.6-0.7,2.2-0.4,2.9c16.9,24.1,28.4,26.8,31.5,28.2
		c-0.7,1.1-1.8,2.6-2.5,3.3c0.7,2.5-1,6.7-4.6,6c2.6-2.7,1.9-5.3-2.5-6.3c-11.4-2.5-24.3-19.1-46.1-65.8c-0.5-0.8-3-1.2-3-1.9
		c0.2-20,13.1-52.5,13.3-53.3c-0.1-0.3-16.5-23.6-27-35.8c-0.1,0.5-0.3,0.6-0.6,0.9c0.2,1.6,3.3,16.1,2.4,17.2
		c-0.9,1.1-1.6,2.6-1.2,3.2c1,1.8,2.3,16.4,2.3,20.5c0,1-0.6,1.5-1,1.8c-0.4,0.3-0.5,0.4-0.5,0.6c0,1.9,1.8,17.7,1.5,18
		c-0.3,0.4-1,0.6-1,0.6c0,1,1.3,17.7,1.1,18c-0.2,0.4-1.6,0.8-1.6,0.8c-0.1,0.5,0.8,12.8,0.5,13.1c-0.3,0.3-2.3,0.6-2.4,0.6
		c-0.1,0.5-0.5,6.2-0.8,6.8c-0.4,0.6-2.9,0.9-2.9,1.7c0,0.6,0.2,4.8-0.3,5.2c-0.3,0.3-1.8-0.3-2.2-0.3c-0.8,0-3.4,1.6-4,1.6h0h0h0
		c-0.6,0-3.1-1.6-4-1.6c-0.4,0-1.9,0.6-2.2,0.3c-0.4-0.4-0.3-4.6-0.3-5.2c0-0.7-2.5-1-2.9-1.7c-0.3-0.6-0.7-6.3-0.8-6.8
		c-0.1,0-2.1-0.3-2.4-0.6c-0.3-0.3,0.6-12.7,0.5-13.1c0,0-1.4-0.4-1.6-0.8c-0.2-0.3,1.1-17,1.1-18c0,0-0.7-0.3-1-0.6
		c-0.2-0.3,1.5-16.1,1.5-18c0-0.2-0.1-0.3-0.5-0.6c-0.4-0.3-1-0.8-1-1.8c0-4.1,1.4-18.7,2.4-20.5c0.4-0.7-0.3-2.1-1.2-3.2
		c-0.8-1.1,2.2-15.5,2.4-17.2c-0.3-0.3-0.6-0.4-0.7-0.9c-10.4,12.2-26.8,35.5-27,35.8c0.2,0.8,13.1,33.3,13.3,53.3
		c0,0.7-2.5,1.1-3,1.9c-21.8,46.6-34.7,63.3-46.1,65.8c-4.4,1-5.1,3.5-2.5,6.3c-3.6,0.7-5.4-3.5-4.6-6c-0.7-0.7-1.7-2.2-2.5-3.3
		c3.1-1.3,14.7-4,31.5-28.2c0.3-0.7-1-2.3-0.4-2.9c4.7-4.8,15-28.5,17.4-33c1.6-4.5-4.8-32.3-10-52.6c0.2-0.3-2.4-1.8-2.4-2
		c-0.9-6.3,30.3-47.8,35.4-54.6c-0.3-0.3-1.7-1.7-2.1-2.3c-11,5.3-27.5,19.2-38.9,28.6c-0.6,0.5-3.3,0-3.5,0.3
		c-5.4,9.6-2.4,37.7-5.4,46.2c-0.3,0.8-1.8-0.1-2.7,0.7c-0.7,0.6-23.1,20.6-23.7,21c-0.2,0.1-1.8-0.7-2.1-0.5
		c-9.4,18.2-17.2,26.7-11.8,27.7c-2.7,2.2-5.5,1.1-5.8-1.7c-1.9,0.7-3.6,2.3-4.4,3.9c-4.5-5.2,14.9-26.4,17.4-34.6
		c0.2-0.7,17.5-11.8,23.3-18.6c2.5-4.8,7-48.2,10.6-51.6c2.9-2.8,36.4-28.6,40.7-30.8c-1.8-3.1-1.5-3.2-1.2-6.2
		c-4.5,1.8-30.2,11.5-42.7,19.4c-17-3.6-54.8-13.9-82.7-21.3c-17.2-4.6-27.4-19.6-27-26c0.4-6.5,15.5-9.5,32.3-8.5
		c13.5,0.8,84.4,28.2,108.9,28.2h12.1c0.3-1.6,0.7-2.7,0.8-3c-7.5-1.5-37.2-30.9-37.2-30.9c-1.4-12.9-15.5-33.6-16-35l0.4-1.9
		c-6.5-3-52.8-15.4-52.8-35.8c0-2.3,0.6-4.4,2.5-6.5c0.1,1.7,1.1,4.9,2.5,5.4c0.3,0.1,1.1,0.1,1.6,0c12.3,21.1,51.2,32.5,51.2,32.5
		c1,0.3,5.7,2.1,17,35.2c0.9,0.4,1.4,0.4,2.6,0.5c0.7,0.7,24.4,24,31,23.2c2.8-6,11.8-5.6,10.2-10.6c-11.2-1-11.7-5.8-8.4-11.7
		c-2.5-2.8-4.8-6-6.3-8.5c-1.5-0.1-7-0.2-7-0.5c0,0,0-0.1,0-0.1c0-0.3,4.5-2.6,5.1-2.7c-0.7-1.2-1.5-2.5-2.4-3.9
		c-1.7,0-9.1-0.3-9.1-0.6c0,0,0-0.1,0-0.1c0-0.3,6.4-2.6,7-2.6c-0.6-0.9-1.2-1.8-1.8-2.7c-0.1,0-9.1-0.5-9.2-0.8c0,0,0-0.1,0-0.1
		c0.1-0.3,6.1-2.4,6.7-2.5c-0.6-0.8-1.1-1.5-1.7-2.3c-4.7,0.8-8.8,0.1-8.8,0.2c0,0,0-0.1,0-0.1c0-0.3,6.1-2.4,6.9-2.5
		c-0.7-0.8-1.4-1.7-2.1-2.5c-0.3,0-7.7,0.9-7.7,0.6c0,0,5-2.7,5.7-2.8c-0.4-0.5-1.1-1.2-1.6-1.7c-0.2,0-6.3,1.1-6.3,0.8
		c0,0,3.4-2.9,4.2-3c-0.7-0.7-1.2-1.1-2-1.8c-0.1,0-5.1,1.2-5.1,0.9c0,0,2-2.2,3.1-2.6c-1.1-0.9-2.1-1.7-3.2-2.4
		c-0.7,0.1-3.2,1.3-3.2,1c0,0,1.4-1.9,1.6-1.9c-0.6-0.7-4.7-2.9-4.4-2.9c0.9-0.1,3.7,0.4,6.1,1.4c0.3-0.3,1.5-1.8,1.8-1.7
		c0.2,0.1,0,2.2,0,2.4c1.2,0.8,2.4,1.6,3.6,2.6c0.3-0.4,1.6-2.1,1.9-1.9c0.2,0.1,0,3.2-0.1,3.4c0.9,0.8,1.9,1.6,2.8,2.5
		c0.4-0.6,2-3.2,2.3-3.1c0.2,0.1-0.3,4.4-0.5,4.9c0.6,0.6,1.1,1.1,1.7,1.7c0.7-0.9,2.4-3.3,2.7-3.2c0.3,0.1-0.6,4.5-0.9,5.2
		c0.8,0.9,1.6,1.8,2.3,2.7c0.8-1.1,2.9-3.7,3.2-3.6c0.3,0.1-0.9,4.8-1.4,5.8c0.7,0.9,1.4,1.7,2,2.6c1-1.3,4.5-5.2,4.8-5.1
		c0.3,0.1-2.2,6.6-2.7,7.9c0.8,1.1,1.5,2.1,2.3,3.2c1.2-1.6,3.8-4.9,4.2-4.8c0.3,0.1-1.7,5.8-2.1,7.9c0.9,1.4,1.8,2.8,2.6,4
		c1.6-2.3,3.1-5,3.4-5c0.3,0.1-0.9,5.8-1.4,8.3c1.1,1.9,4.9,6.3,7.4,7.8c2.1,1.2,6.5-0.6,6.5-3.8c-4.6-0.7-8.1-3.3-8.1-6.7
		c0-3,3.4-4.6,5.3-4.6v4.2c0,2.5,0.6,4.3,3.3,4.3c0,0,0-48.1,0-55.6c0-5.2-1.2-14.8-1.9-17.1c-0.5-1.8-0.9-3.1-0.3-4
		c0.4-0.6,1.3-1,2.8-1.2c0.3,0,2.4-3.3,2.4-3.3h0c0,0,2.1,3.3,2.4,3.3c1.5,0.2,2.3,0.5,2.8,1.2c0.6,0.9,0.2,2.1-0.3,4
		c-0.7,2.3-1.9,11.9-1.9,17.1v55.6c2.7,0,3.3-1.8,3.3-4.3v-4.2c1.9,0,5.3,1.6,5.3,4.6c0,3.4-3.6,6-8.1,6.7c0,3.3,4.4,5.1,6.5,3.8
		c2.5-1.5,6.2-5.9,7.4-7.8c-0.4-2.4-1.7-8.2-1.4-8.3c0.3-0.1,1.8,2.7,3.4,5c0.8-1.3,1.7-2.6,2.6-4c-0.4-2.1-2.3-7.8-2.1-7.9
		c0.3-0.1,3,3.2,4.2,4.8c0.7-1,1.5-2.1,2.3-3.2c-0.5-1.3-3-7.9-2.7-7.9c0.3-0.1,3.9,3.8,4.9,5.1c0.7-0.9,1.3-1.7,2-2.6
		c-0.5-1-1.7-5.7-1.4-5.8c0.3-0.1,2.4,2.5,3.2,3.6c0.8-0.9,1.5-1.8,2.3-2.7c-0.3-0.7-1.1-5.1-0.9-5.2c0.3-0.1,2.1,2.3,2.7,3.2
		c0.6-0.6,1.1-1.2,1.7-1.7c-0.1-0.5-0.7-4.8-0.5-4.9c0.3-0.1,1.9,2.6,2.3,3.1c0.9-0.9,1.8-1.7,2.8-2.5c0-0.2-0.3-3.3-0.1-3.4
		c0.3-0.1,1.6,1.6,1.9,1.9c1.2-0.9,2.4-1.8,3.6-2.6c0-0.2-0.2-2.3,0-2.4c0.3-0.2,1.5,1.3,1.8,1.7c2.4-1,5.2-1.5,6.1-1.4
		c0.3,0-3.8,2.2-4.4,2.9c0.3,0,1.7,1.9,1.7,1.9c0,0.3-2.5-0.9-3.2-1c-1.2,0.7-2.1,1.5-3.2,2.4c1.1,0.4,3.1,2.6,3.1,2.6
		c0,0.3-5-0.9-5.1-0.9c-0.7,0.7-1.2,1.1-2,1.8c0.7,0.1,4.2,3,4.2,3c0,0.3-6.1-0.8-6.3-0.8c-0.4,0.5-1.1,1.2-1.6,1.7
		c0.8,0.1,5.7,2.8,5.7,2.8c0,0.3-7.4-0.6-7.7-0.6c-0.7,0.8-1.4,1.7-2.1,2.5c0.7,0.1,6.8,2.2,6.9,2.5c0,0,0,0.1,0,0.1
		c0-0.2-4.1,0.5-8.8-0.2c-0.6,0.8-1.1,1.5-1.7,2.3c0.7,0.1,6.7,2.2,6.7,2.5c0,0,0,0.1,0,0.1c0,0.3-9.1,0.8-9.1,0.8
		c-0.6,0.9-1.2,1.8-1.8,2.7c0.6,0.1,6.9,2.3,7,2.6c0,0,0,0.1,0,0.1c0,0.3-7.5,0.6-9.1,0.6c-0.8,1.3-1.6,2.6-2.4,3.9
		c0.6,0.1,5.1,2.3,5.1,2.7c0,0,0,0.1,0,0.1c0,0.3-5.5,0.4-7,0.5c-1.5,2.5-3.8,5.8-6.3,8.5c3.3,5.9,2.8,10.7-8.4,11.7
		c-1.7,5,7.3,4.6,10.2,10.6c6.6,0.8,30.3-22.5,31-23.2c1.2-0.1,1.7-0.1,2.6-0.5c11.3-33.1,16.1-34.9,17-35.2
		c0,0,38.9-11.4,51.2-32.5c0.5,0.2,1.3,0.1,1.6,0c1.4-0.5,2.4-3.7,2.5-5.4c1.9,2.1,2.5,4.2,2.5,6.5c0,20.4-46.3,32.8-52.8,35.8
		l0.4,1.9c-0.5,1.4-14.6,22.1-16,35c0,0-29.8,29.4-37.2,30.9c0.1,0.3,0.5,1.4,0.8,3h12.1c24.4,0,95.4-27.3,108.9-28.2
		C431.9,228.5,447,231.5,447.4,238 M526.9,440.1V155.5L275.8,13.2L24.7,155.5v284.6l251.1,142.3L526.9,440.1z"/>
</g>
</svg>
