<svg id="Layer_1" data-name="Layer 1" xmlns="http://www.w3.org/2000/svg" viewBox="0 0 180 180"><defs><style>.cls-1{fill:#fff;}</style></defs><path class="cls-1" d="M90,51.91a36.4,36.4,0,0,0-26.61,11,37.68,37.68,0,0,0,0,53.22,36.43,36.43,0,0,0,26.61,11,37.64,37.64,0,0,0,0-75.27ZM79.62,85.2,90,89.55V78.3a11.24,11.24,0,0,1,10.41,7h0a1.46,1.46,0,0,1,.07.19,7.55,7.55,0,0,1,.29.84c0,.13.07.27.11.41s.11.43.16.65.07.43.1.65l.06.43c0,.3,0,.59,0,.88,0,.07,0,.14,0,.21v0c0,.31,0,.63,0,.94a1.34,1.34,0,0,1,0,.2c0,.25-.07.49-.11.74s0,.25-.06.38h0a10.92,10.92,0,0,1-1.1,3h0c-.11.21-.24.41-.37.61l-.2.34-.23.31a11.32,11.32,0,0,1-2.79,2.73h0l-.32.2c-.21.13-.43.27-.65.39l-.18.08a9.37,9.37,0,0,1-.85.4l0,0-.19.07c-.28.1-.55.2-.84.29l-.42.11c-.21,0-.42.11-.64.15l-.66.1c-.14,0-.28,0-.42.06a8.83,8.83,0,0,1-.89,0H90l-.6,0a10.83,10.83,0,0,1-6.85-2.83,11.18,11.18,0,0,1-2.93-4.14A10.8,10.8,0,0,1,79.62,85.2ZM74,105.53l4.68-4.68A16,16,0,1,0,90,73.56V66.94a22.61,22.61,0,0,1,0,45.21A21.78,21.78,0,0,1,74,105.53Zm19.86,17.38-1.09-6.28A27.22,27.22,0,0,0,90,62.33V56a33.59,33.59,0,0,1,3.88,67Z"/><path class="cls-1" d="M90,10.9,20.61,50.23v78.64L90,168.19l69.39-39.32V50.23ZM90,131a40.11,40.11,0,0,1-29.28-12.13,41.46,41.46,0,0,1,0-58.56A40.07,40.07,0,0,1,90,48.14,41.41,41.41,0,0,1,90,131Z"/></svg>