<svg id="Layer_1" data-name="Layer 1" xmlns="http://www.w3.org/2000/svg" viewBox="0 0 1367.69 188.27"><defs><style>.cls-1,.cls-2,.cls-3{fill:#fff;}.cls-2{opacity:0.9;}.cls-3{opacity:0.7;}</style></defs><title>smarter-crowdsourcing-logo</title><path class="cls-1" d="M395.64,110.1l4.1-5.67a18.13,18.13,0,0,0,13.3,5.8c6,0,8.44-3,8.44-5.73,0-3.78-4.47-4.92-9.58-6.24C405,96.56,397,94.54,397,85.66c0-6.93,6.11-12.29,15.31-12.29,6.55,0,11.85,2.08,15.75,5.86l-4.22,5.48a17.09,17.09,0,0,0-12.16-4.79c-4.35,0-7.12,2.08-7.12,5.23s4.28,4.35,9.26,5.61c6.93,1.76,15.19,3.91,15.19,13,0,7-4.91,13-16.26,13C405,116.78,399.35,114.07,395.64,110.1Z"/><path class="cls-1" d="M478.37,116V84.84L465.46,116h-3.15L449.45,84.84V116h-7.37V74h10.4l11.4,27.66L475.35,74h10.4v42Z"/><path class="cls-1" d="M530.43,116,527.34,108H508.06L505,116h-8.38L513.1,74h9.2l16.51,42ZM517.7,81.44l-7.56,20h15.12Z"/><path class="cls-1" d="M573.72,116l-9.33-15.69h-7.31V116h-7.37V74h18.46c8.32,0,13.74,5.42,13.74,13.17,0,7.5-4.92,11.53-10,12.35L582.23,116Zm.63-28.86c0-4-3-6.68-7.18-6.68H557.09V93.85h10.08C571.33,93.85,574.35,91.2,574.35,87.17Z"/><path class="cls-1" d="M604.92,116V80.49H592.19V74H625v6.49H612.29V116Z"/><path class="cls-1" d="M637.57,116V74h28.79v6.49H644.94v10.9h21v6.49h-21v11.66h21.42V116Z"/><path class="cls-1" d="M704.23,116l-9.33-15.69H687.6V116h-7.37V74h18.46c8.32,0,13.74,5.42,13.74,13.17,0,7.5-4.92,11.53-10,12.35L712.74,116Zm.63-28.86c0-4-3-6.68-7.18-6.68H687.6V93.85h10.08C701.84,93.85,704.86,91.2,704.86,87.17Z"/><path class="cls-1" d="M746.71,95c0-12.92,9.64-21.74,22.05-21.74a19,19,0,0,1,16.89,9.45L779.35,86a12.48,12.48,0,0,0-10.59-6.11c-8.32,0-14.49,6.36-14.49,15.19s6.18,15.18,14.49,15.18a12.34,12.34,0,0,0,10.59-6.11l6.3,3.21c-3.21,5-8.38,9.45-16.89,9.45C756.35,116.78,746.71,108,746.71,95Z"/><path class="cls-1" d="M821.89,116l-9.33-15.69h-7.31V116h-7.37V74h18.46c8.32,0,13.74,5.42,13.74,13.17,0,7.5-4.92,11.53-10,12.35L830.4,116Zm.63-28.86c0-4-3-6.68-7.18-6.68H805.26V93.85h10.08C819.5,93.85,822.52,91.2,822.52,87.17Z"/><path class="cls-1" d="M841.87,95c0-12.54,8.88-21.74,21.49-21.74s21.49,9.2,21.49,21.74-8.88,21.74-21.49,21.74S841.87,107.58,841.87,95Zm35.41,0c0-8.7-5.48-15.19-13.93-15.19S849.43,86.35,849.43,95s5.42,15.18,13.93,15.18S877.28,103.68,877.28,95Z"/><path class="cls-1" d="M929.15,116,921,85l-8.13,31H905l-12-42h8.25l8.19,32.39L918.06,74h5.86l8.69,32.39L940.74,74H949l-12,42Z"/><path class="cls-1" d="M960.22,116V74h15.63c13.11,0,22,8.7,22,21s-8.89,21-22,21Zm30.05-21c0-8.13-5-14.56-14.43-14.56h-8.25v29h8.25C985,109.54,990.28,103,990.28,95Z"/><path class="cls-1" d="M1008.56,110.1l4.1-5.67a18.13,18.13,0,0,0,13.29,5.8c6,0,8.44-3,8.44-5.73,0-3.78-4.47-4.92-9.58-6.24-6.87-1.7-14.93-3.72-14.93-12.6,0-6.93,6.11-12.29,15.31-12.29,6.55,0,11.85,2.08,15.75,5.86l-4.22,5.48a17.09,17.09,0,0,0-12.16-4.79c-4.35,0-7.12,2.08-7.12,5.23s4.28,4.35,9.26,5.61c6.93,1.76,15.19,3.91,15.19,13,0,7-4.91,13-16.26,13C1017.88,116.78,1012.27,114.07,1008.56,110.1Z"/><path class="cls-1" d="M1053.11,95c0-12.54,8.88-21.74,21.49-21.74s21.49,9.2,21.49,21.74-8.88,21.74-21.49,21.74S1053.11,107.58,1053.11,95Zm35.41,0c0-8.7-5.48-15.19-13.93-15.19s-13.93,6.49-13.93,15.19,5.42,15.18,13.93,15.18S1088.52,103.68,1088.52,95Z"/><path class="cls-1" d="M1109.51,99.46V74h7.43v25.2c0,6.68,3.72,11,10.77,11s10.71-4.35,10.71-11V74h7.44V99.39c0,10.46-6,17.39-18.15,17.39S1109.51,109.79,1109.51,99.46Z"/><path class="cls-1" d="M1185.13,116l-9.33-15.69h-7.31V116h-7.37V74h18.46c8.32,0,13.74,5.42,13.74,13.17,0,7.5-4.92,11.53-10,12.35L1193.64,116Zm.63-28.86c0-4-3-6.68-7.18-6.68H1168.5V93.85h10.08C1182.74,93.85,1185.76,91.2,1185.76,87.17Z"/><path class="cls-1" d="M1205.11,95c0-12.92,9.64-21.74,22.05-21.74a19,19,0,0,1,16.89,9.45l-6.3,3.21a12.48,12.48,0,0,0-10.59-6.11c-8.32,0-14.49,6.36-14.49,15.19s6.18,15.18,14.49,15.18a12.34,12.34,0,0,0,10.59-6.11l6.3,3.21c-3.21,5-8.38,9.45-16.89,9.45C1214.75,116.78,1205.11,108,1205.11,95Z"/><path class="cls-1" d="M1256.28,116V74h7.37v42Z"/><path class="cls-1" d="M1308.21,116l-21.93-30v30h-7.37V74h7.56L1308,103.18V74h7.37v42Z"/><path class="cls-1" d="M1328.69,95c0-13.17,9.89-21.74,22.05-21.74a19.76,19.76,0,0,1,16.95,8.76l-6,3.4a13.38,13.38,0,0,0-10.9-5.61c-8.32,0-14.49,6.36-14.49,15.19s6.18,15.25,14.49,15.25a15.41,15.41,0,0,0,10-3.78V100h-12.54V93.47h19.91v15.75a22.8,22.8,0,0,1-17.33,7.62C1338.58,116.85,1328.69,108.22,1328.69,95Z"/><polygon class="cls-2" points="94.53 107.13 94.53 160.7 141.79 187.48 189.06 160.7 189.06 107.13 141.79 80.35 94.53 107.13"/><polygon class="cls-3" points="189.06 0 141.79 26.78 141.79 80.35 189.06 107.13 236.32 80.35 236.32 26.78 189.06 0"/><polygon class="cls-3" points="0 107.92 0 161.49 47.27 188.27 94.53 161.49 94.53 107.92 47.27 81.14 0 107.92"/><polygon class="cls-2" points="283.59 0 236.32 26.78 236.32 80.35 283.59 107.13 330.85 80.35 330.85 26.78 283.59 0"/></svg>