<?xml version="1.0" encoding="utf-8"?>
<!-- Generator: Adobe Illustrator 21.0.2, SVG Export Plug-In . SVG Version: 6.00 Build 0)  -->
<svg version="1.1" id="Layer_1" xmlns="http://www.w3.org/2000/svg" xmlns:xlink="http://www.w3.org/1999/xlink" x="0px" y="0px"
	 viewBox="0 0 1000 333.6" style="enable-background:new 0 0 1000 333.6;" xml:space="preserve">
<style type="text/css">
	.st0{opacity:0.95;}
	.st1{filter:url(#Adobe_OpacityMaskFilter);}
	.st2{fill:#FFFFFF;}
	.st3{mask:url(#SVGID_1_);}
	.st4{fill:#2C4758;}
	.st5{opacity:0.8;}
	.st6{filter:url(#Adobe_OpacityMaskFilter_1_);}
	.st7{mask:url(#SVGID_2_);}
	.st8{opacity:0.4;}
	.st9{filter:url(#Adobe_OpacityMaskFilter_2_);}
	.st10{mask:url(#SVGID_3_);}
	.st11{opacity:0.6;}
	.st12{filter:url(#Adobe_OpacityMaskFilter_3_);}
	.st13{mask:url(#SVGID_4_);}
	.st14{opacity:0.2;}
	.st15{filter:url(#Adobe_OpacityMaskFilter_4_);}
	.st16{mask:url(#SVGID_5_);}
</style>
<g>
	<g>
		<g class="st0">
			<g>
				<defs>
					<filter id="Adobe_OpacityMaskFilter" filterUnits="userSpaceOnUse" x="751.9" y="7.1" width="240.1" height="208.2">
						<feColorMatrix  type="matrix" values="1 0 0 0 0  0 1 0 0 0  0 0 1 0 0  0 0 0 1 0"/>
					</filter>
				</defs>
				<mask maskUnits="userSpaceOnUse" x="751.9" y="7.1" width="240.1" height="208.2" id="SVGID_1_">
					<g class="st1">
						<path class="st2" d="M810.3,213.2c0,0,1.3,2.2,3.8,2.2h115.7c0,0,2.6,0,3.8-2.2l57.8-99.7c0,0,1.3-2.2,0-4.4L933.6,9.4
							c0,0-1.3-2.2-3.8-2.2H814.1c0,0-2.6,0-3.8,2.2l-57.8,99.7c0,0-1.3,2.2,0,4.4L810.3,213.2z"/>
					</g>
				</mask>
				<g class="st3">
					<g>
						<path class="st4" d="M810.3,213.2c0,0,1.3,2.2,3.8,2.2h115.7c0,0,2.6,0,3.8-2.2l57.8-99.7c0,0,1.3-2.2,0-4.4L933.6,9.4
							c0,0-1.3-2.2-3.8-2.2H814.1c0,0-2.6,0-3.8,2.2l-57.8,99.7c0,0-1.3,2.2,0,4.4L810.3,213.2z"/>
					</g>
				</g>
			</g>
		</g>
		<g class="st5">
			<g>
				<defs>
					<filter id="Adobe_OpacityMaskFilter_1_" filterUnits="userSpaceOnUse" x="567.2" y="113.9" width="240.1" height="208.2">
						<feColorMatrix  type="matrix" values="1 0 0 0 0  0 1 0 0 0  0 0 1 0 0  0 0 0 1 0"/>
					</filter>
				</defs>
				<mask maskUnits="userSpaceOnUse" x="567.2" y="113.9" width="240.1" height="208.2" id="SVGID_2_">
					<g class="st6">
						<path class="st2" d="M625.6,319.9c0,0,1.3,2.2,3.8,2.2h115.7c0,0,2.6,0,3.8-2.2l57.8-99.7c0,0,1.3-2.2,0-4.4l-57.8-99.7
							c0,0-1.3-2.2-3.8-2.2H629.4c0,0-2.6,0-3.8,2.2l-57.8,99.7c0,0-1.3,2.2,0,4.4L625.6,319.9z"/>
					</g>
				</mask>
				<g class="st7">
					<g>
						<path class="st4" d="M625.6,319.9c0,0,1.3,2.2,3.8,2.2h115.7c0,0,2.6,0,3.8-2.2l57.8-99.7c0,0,1.3-2.2,0-4.4l-57.8-99.7
							c0,0-1.3-2.2-3.8-2.2H629.4c0,0-2.6,0-3.8,2.2l-57.8,99.7c0,0-1.3,2.2,0,4.4L625.6,319.9z"/>
					</g>
				</g>
			</g>
		</g>
		<g class="st8">
			<g>
				<defs>
					<filter id="Adobe_OpacityMaskFilter_2_" filterUnits="userSpaceOnUse" x="197.2" y="113.9" width="240.1" height="208.2">
						<feColorMatrix  type="matrix" values="1 0 0 0 0  0 1 0 0 0  0 0 1 0 0  0 0 0 1 0"/>
					</filter>
				</defs>
				<mask maskUnits="userSpaceOnUse" x="197.2" y="113.9" width="240.1" height="208.2" id="SVGID_3_">
					<g class="st9">
						<path class="st2" d="M255.5,319.9c0,0,1.3,2.2,3.8,2.2h115.7c0,0,2.6,0,3.8-2.2l57.8-99.7c0,0,1.3-2.2,0-4.4l-57.8-99.7
							c0,0-1.3-2.2-3.8-2.2H259.4c0,0-2.6,0-3.8,2.2l-57.8,99.7c0,0-1.3,2.2,0,4.4L255.5,319.9z"/>
					</g>
				</mask>
				<g class="st10">
					<g>
						<path class="st4" d="M255.5,319.9c0,0,1.3,2.2,3.8,2.2h115.7c0,0,2.6,0,3.8-2.2l57.8-99.7c0,0,1.3-2.2,0-4.4l-57.8-99.7
							c0,0-1.3-2.2-3.8-2.2H259.4c0,0-2.6,0-3.8,2.2l-57.8,99.7c0,0-1.3,2.2,0,4.4L255.5,319.9z"/>
					</g>
				</g>
			</g>
		</g>
		<g class="st11">
			<g>
				<defs>
					<filter id="Adobe_OpacityMaskFilter_3_" filterUnits="userSpaceOnUse" x="381.8" y="8.3" width="240.1" height="208.2">
						<feColorMatrix  type="matrix" values="1 0 0 0 0  0 1 0 0 0  0 0 1 0 0  0 0 0 1 0"/>
					</filter>
				</defs>
				<mask maskUnits="userSpaceOnUse" x="381.8" y="8.3" width="240.1" height="208.2" id="SVGID_4_">
					<g class="st12">
						<path class="st2" d="M440.2,214.4c0,0,1.3,2.2,3.8,2.2h115.7c0,0,2.6,0,3.8-2.2l57.8-99.7c0,0,1.3-2.2,0-4.4l-57.8-99.7
							c0,0-1.3-2.2-3.8-2.2H444.1c0,0-2.6,0-3.8,2.2l-57.8,99.7c0,0-1.3,2.2,0,4.4L440.2,214.4z"/>
					</g>
				</mask>
				<g class="st13">
					<g>
						<path class="st4" d="M440.2,214.4c0,0,1.3,2.2,3.8,2.2h115.7c0,0,2.6,0,3.8-2.2l57.8-99.7c0,0,1.3-2.2,0-4.4l-57.8-99.7
							c0,0-1.3-2.2-3.8-2.2H444.1c0,0-2.6,0-3.8,2.2l-57.8,99.7c0,0-1.3,2.2,0,4.4L440.2,214.4z"/>
					</g>
				</g>
			</g>
		</g>
		<g class="st14">
			<g>
				<defs>
					<filter id="Adobe_OpacityMaskFilter_4_" filterUnits="userSpaceOnUse" x="11.8" y="8.3" width="240.1" height="208.2">
						<feColorMatrix  type="matrix" values="1 0 0 0 0  0 1 0 0 0  0 0 1 0 0  0 0 0 1 0"/>
					</filter>
				</defs>
				<mask maskUnits="userSpaceOnUse" x="11.8" y="8.3" width="240.1" height="208.2" id="SVGID_5_">
					<g class="st15">
						<path class="st2" d="M70.2,214.4c0,0,1.3,2.2,3.8,2.2h115.7c0,0,2.6,0,3.8-2.2l57.8-99.7c0,0,1.3-2.2,0-4.4l-57.8-99.7
							c0,0-1.3-2.2-3.8-2.2H74.1c0,0-2.6,0-3.8,2.2l-57.8,99.7c0,0-1.3,2.2,0,4.4L70.2,214.4z"/>
					</g>
				</mask>
				<g class="st16">
					<g>
						<path class="st4" d="M70.2,214.4c0,0,1.3,2.2,3.8,2.2h115.7c0,0,2.6,0,3.8-2.2l57.8-99.7c0,0,1.3-2.2,0-4.4l-57.8-99.7
							c0,0-1.3-2.2-3.8-2.2H74.1c0,0-2.6,0-3.8,2.2l-57.8,99.7c0,0-1.3,2.2,0,4.4L70.2,214.4z"/>
					</g>
				</g>
			</g>
		</g>
	</g>
	<g>
		<path class="st2" d="M40,93.1h5.4c2.6,0,4,1.8,4,3.9c0,2.1-1.5,3.9-4,3.9h-3.3v4.6H40V93.1z M45.1,95h-3v3.9h3
			c1.2,0,2.1-0.8,2.1-2S46.3,95,45.1,95z"/>
		<path class="st2" d="M57.7,103.1h-5.9l-0.9,2.4h-2.4l4.9-12.4h2.7l4.9,12.4h-2.4L57.7,103.1z M52.5,101.2h4.6l-2.3-6.2L52.5,101.2
			z"/>
		<path class="st2" d="M66.7,100.8h-2.2v4.6h-2.2V93.1h5.4c2.4,0,4,1.6,4,3.9c0,2.2-1.4,3.4-2.9,3.6l3,4.9h-2.5L66.7,100.8z
			 M67.5,95h-3v3.9h3c1.2,0,2.1-0.8,2.1-2S68.7,95,67.5,95z"/>
		<path class="st2" d="M76.8,95H73v-1.9h9.7V95h-3.7v10.5h-2.2V95z"/>
		<path class="st2" d="M86.7,96.4v9h-2.2V93.1h2.2l6.3,8.8v-8.8h2.2v12.4h-2.1L86.7,96.4z"/>
		<path class="st2" d="M97.8,93.1h8.5V95H100v3.2h6.2v1.9H100v3.4h6.3v1.9h-8.5V93.1z"/>
		<path class="st2" d="M112.9,100.8h-2.2v4.6h-2.2V93.1h5.4c2.4,0,4,1.6,4,3.9c0,2.2-1.4,3.4-2.9,3.6l3,4.9h-2.5L112.9,100.8z
			 M113.7,95h-3v3.9h3c1.2,0,2.1-0.8,2.1-2S114.9,95,113.7,95z"/>
		<path class="st2" d="M135.2,105.4h-2.5c-0.3-0.3-0.7-0.7-1.1-1.1c-0.9,0.8-2.1,1.3-3.5,1.3c-2.2,0-4-1.2-4-3.5
			c0-1.9,1.3-2.9,2.7-3.6c-0.5-0.9-0.9-1.9-0.9-2.7c0-1.7,1.4-2.9,3.4-2.9c1.7,0,3.1,0.9,3.1,2.5c0,1.9-1.5,2.7-3.1,3.4
			c0.4,0.6,0.9,1.1,1.2,1.5c0.4,0.5,0.8,1,1.2,1.4c0.6-0.9,1-1.9,1.2-2.6l1.6,0.7c-0.4,1-1,2.1-1.7,3.1
			C133.6,103.8,134.4,104.6,135.2,105.4z M130.5,103.2c-0.6-0.7-1.2-1.3-1.5-1.7c-0.4-0.5-0.9-1.1-1.4-1.8c-0.8,0.5-1.4,1.2-1.4,2.2
			c0,1.4,1,2.1,2.2,2.1C129.2,104.1,129.9,103.8,130.5,103.2z M128.6,97.7c1.2-0.6,2.1-1.2,2.1-2.2c0-0.8-0.5-1.2-1.2-1.2
			c-0.8,0-1.5,0.6-1.5,1.5C127.9,96.4,128.2,97.1,128.6,97.7z"/>
		<path class="st2" d="M141.6,93.1h5.4c2.6,0,4,1.8,4,3.9c0,2.1-1.5,3.9-4,3.9h-3.3v4.6h-2.2V93.1z M146.8,95h-3v3.9h3
			c1.2,0,2.1-0.8,2.1-2S148,95,146.8,95z"/>
		<path class="st2" d="M157.2,100.8h-2.2v4.6h-2.2V93.1h5.4c2.4,0,4,1.6,4,3.9c0,2.2-1.4,3.4-2.9,3.6l3,4.9H160L157.2,100.8z
			 M158,95h-3v3.9h3c1.2,0,2.1-0.8,2.1-2S159.3,95,158,95z"/>
		<path class="st2" d="M170.3,92.9c3.7,0,6.3,2.7,6.3,6.4c0,3.7-2.6,6.4-6.3,6.4c-3.7,0-6.3-2.7-6.3-6.4
			C164,95.6,166.6,92.9,170.3,92.9z M170.3,94.8c-2.5,0-4.1,1.9-4.1,4.5c0,2.5,1.6,4.5,4.1,4.5c2.5,0,4.1-1.9,4.1-4.5
			C174.4,96.7,172.8,94.8,170.3,94.8z"/>
		<path class="st2" d="M178.7,93.1h6.1c2.3,0,3.5,1.4,3.5,3.2c0,1.6-1,2.6-2.2,2.8c1.3,0.2,2.4,1.5,2.4,3c0,1.9-1.3,3.3-3.6,3.3
			h-6.2V93.1z M184.4,98.2c1.1,0,1.7-0.7,1.7-1.6c0-0.9-0.6-1.6-1.7-1.6h-3.5v3.2H184.4z M184.5,103.5c1.2,0,1.9-0.6,1.9-1.7
			c0-0.9-0.6-1.7-1.9-1.7h-3.6v3.4H184.5z"/>
		<path class="st2" d="M190.7,93.1h2.2v10.5h5.4v1.9h-7.6V93.1z"/>
		<path class="st2" d="M200.3,93.1h8.5V95h-6.3v3.2h6.2v1.9h-6.2v3.4h6.3v1.9h-8.5V93.1z"/>
		<path class="st2" d="M221.7,96.1l-3.8,9.4H217l-3.8-9.4v9.4H211V93.1h3.1l3.4,8.3l3.4-8.3h3.1v12.4h-2.2V96.1z"/>
	</g>
	<g>
		<path class="st2" d="M63.4,115.3h2.2v12.4h-2.2V115.3z"/>
		<path class="st2" d="M68.2,115.3h4.6c3.9,0,6.5,2.6,6.5,6.2c0,3.6-2.6,6.2-6.5,6.2h-4.6V115.3z M72.8,125.8c2.7,0,4.2-1.9,4.2-4.3
			c0-2.4-1.5-4.3-4.2-4.3h-2.4v8.5H72.8z"/>
		<path class="st2" d="M81.4,115.3h8.5v1.9h-6.3v3.2h6.2v1.9h-6.2v3.4h6.3v1.9h-8.5V115.3z"/>
		<path class="st2" d="M94.3,118.7v9h-2.2v-12.4h2.2l6.3,8.8v-8.8h2.2v12.4h-2.1L94.3,118.7z"/>
		<path class="st2" d="M108.4,117.2h-3.7v-1.9h9.7v1.9h-3.7v10.5h-2.2V117.2z"/>
		<path class="st2" d="M116.1,115.3h2.2v12.4h-2.2V115.3z"/>
		<path class="st2" d="M120.9,115.3h8.5v1.9h-6.3v3.2h6.2v1.9h-6.2v5.3h-2.2V115.3z"/>
		<path class="st2" d="M131.3,115.3h2.2v12.4h-2.2V115.3z"/>
		<path class="st2" d="M135.6,121.5c0-3.8,2.8-6.4,6.4-6.4c2.6,0,4.1,1.3,5.1,2.8l-1.9,0.9c-0.6-1-1.8-1.8-3.2-1.8
			c-2.4,0-4.2,1.9-4.2,4.5c0,2.6,1.8,4.5,4.2,4.5c1.4,0,2.6-0.8,3.2-1.8l1.9,0.9c-0.9,1.5-2.5,2.8-5.1,2.8
			C138.4,127.9,135.6,125.3,135.6,121.5z"/>
		<path class="st2" d="M156.5,125.3h-5.9l-0.9,2.4h-2.4l4.9-12.4h2.7l4.9,12.4h-2.4L156.5,125.3z M151.3,123.4h4.6l-2.3-6.2
			L151.3,123.4z"/>
		<path class="st2" d="M162.9,117.2h-3.7v-1.9h9.7v1.9h-3.7v10.5h-2.2V117.2z"/>
		<path class="st2" d="M170.7,115.3h2.2v12.4h-2.2V115.3z"/>
		<path class="st2" d="M181.2,115.1c3.7,0,6.3,2.7,6.3,6.4c0,3.7-2.6,6.4-6.3,6.4c-3.7,0-6.3-2.7-6.3-6.4
			C174.9,117.8,177.5,115.1,181.2,115.1z M181.2,117c-2.5,0-4.1,1.9-4.1,4.5c0,2.5,1.6,4.5,4.1,4.5c2.5,0,4.1-1.9,4.1-4.5
			C185.3,118.9,183.7,117,181.2,117z"/>
		<path class="st2" d="M191.8,118.7v9h-2.2v-12.4h2.2l6.3,8.8v-8.8h2.2v12.4h-2.1L191.8,118.7z"/>
	</g>
	<g>
		<path class="st2" d="M276.1,192.8h5.4c2.6,0,4,1.8,4,3.9c0,2.1-1.5,3.9-4,3.9h-3.3v4.6h-2.2V192.8z M281.2,194.8h-3v3.9h3
			c1.2,0,2.1-0.8,2.1-2C283.3,195.5,282.5,194.8,281.2,194.8z"/>
		<path class="st2" d="M291.7,200.6h-2.2v4.6h-2.2v-12.4h5.4c2.4,0,4,1.6,4,3.9c0,2.2-1.4,3.4-2.9,3.6l3,4.9h-2.5L291.7,200.6z
			 M292.5,194.8h-3v3.9h3c1.2,0,2.1-0.8,2.1-2C294.6,195.5,293.7,194.8,292.5,194.8z"/>
		<path class="st2" d="M304.8,192.6c3.7,0,6.3,2.7,6.3,6.4c0,3.7-2.6,6.4-6.3,6.4c-3.7,0-6.3-2.7-6.3-6.4
			C298.4,195.3,301.1,192.6,304.8,192.6z M304.8,194.6c-2.5,0-4.1,1.9-4.1,4.5c0,2.5,1.6,4.5,4.1,4.5c2.5,0,4.1-1.9,4.1-4.5
			C308.9,196.5,307.3,194.6,304.8,194.6z"/>
		<path class="st2" d="M313.2,192.8h6.1c2.3,0,3.5,1.4,3.5,3.2c0,1.6-1,2.6-2.2,2.8c1.3,0.2,2.4,1.5,2.4,3c0,1.9-1.3,3.3-3.6,3.3
			h-6.2V192.8z M318.8,198c1.1,0,1.7-0.7,1.7-1.6s-0.6-1.6-1.7-1.6h-3.5v3.2H318.8z M318.9,203.3c1.2,0,1.9-0.6,1.9-1.7
			c0-0.9-0.6-1.7-1.9-1.7h-3.6v3.4H318.9z"/>
		<path class="st2" d="M325.2,192.8h2.2v10.5h5.4v1.9h-7.6V192.8z"/>
		<path class="st2" d="M334.8,192.8h8.5v1.9h-6.3v3.2h6.2v1.9h-6.2v3.4h6.3v1.9h-8.5V192.8z"/>
		<path class="st2" d="M356.1,195.8l-3.8,9.4h-0.9l-3.8-9.4v9.4h-2.2v-12.4h3.1l3.4,8.3l3.4-8.3h3.1v12.4h-2.2V195.8z"/>
	</g>
	<g>
		<path class="st2" d="M268.4,215.1h4.6c3.9,0,6.5,2.6,6.5,6.2c0,3.6-2.6,6.2-6.5,6.2h-4.6V215.1z M273,225.5c2.7,0,4.2-1.9,4.2-4.3
			c0-2.4-1.5-4.3-4.2-4.3h-2.4v8.5H273z"/>
		<path class="st2" d="M281.6,215.1h8.5v1.9h-6.3v3.2h6.2v1.9h-6.2v3.4h6.3v1.9h-8.5V215.1z"/>
		<path class="st2" d="M292.3,215.1h8.5v1.9h-6.3v3.2h6.2v1.9h-6.2v5.3h-2.2V215.1z"/>
		<path class="st2" d="M302.7,215.1h2.2v12.4h-2.2V215.1z"/>
		<path class="st2" d="M309.6,218.4v9h-2.2v-12.4h2.2l6.3,8.8v-8.8h2.2v12.4h-2.1L309.6,218.4z"/>
		<path class="st2" d="M320.8,215.1h2.2v12.4h-2.2V215.1z"/>
		<path class="st2" d="M328.6,217h-3.7v-1.9h9.7v1.9h-3.7v10.5h-2.2V217z"/>
		<path class="st2" d="M336.3,215.1h2.2v12.4h-2.2V215.1z"/>
		<path class="st2" d="M346.9,214.9c3.7,0,6.3,2.7,6.3,6.4c0,3.7-2.6,6.4-6.3,6.4c-3.7,0-6.3-2.7-6.3-6.4
			C340.6,217.6,343.2,214.9,346.9,214.9z M346.9,216.8c-2.5,0-4.1,1.9-4.1,4.5c0,2.5,1.6,4.5,4.1,4.5c2.5,0,4.1-1.9,4.1-4.5
			C351,218.7,349.4,216.8,346.9,216.8z"/>
		<path class="st2" d="M357.5,218.4v9h-2.2v-12.4h2.2l6.3,8.8v-8.8h2.2v12.4h-2.1L357.5,218.4z"/>
	</g>
	<g>
		<path class="st2" d="M457.1,95.5c0-3.8,2.8-6.4,6.4-6.4c2.6,0,4.1,1.3,5.1,2.8l-1.9,0.9c-0.6-1-1.8-1.8-3.2-1.8
			c-2.4,0-4.2,1.9-4.2,4.5c0,2.6,1.8,4.5,4.2,4.5c1.4,0,2.6-0.8,3.2-1.8l1.9,0.9c-0.9,1.5-2.5,2.8-5.1,2.8
			C460,101.9,457.1,99.3,457.1,95.5z"/>
		<path class="st2" d="M470.3,89.3h2.2v7.4c0,2,1.1,3.2,3.2,3.2c2.1,0,3.2-1.3,3.2-3.2v-7.4h2.2v7.5c0,3.1-1.8,5.1-5.3,5.1
			c-3.6,0-5.4-2.1-5.4-5.1V89.3z"/>
		<path class="st2" d="M488,97.1h-2.2v4.6h-2.2V89.3h5.4c2.4,0,4,1.6,4,3.9c0,2.2-1.4,3.4-2.9,3.6l3,4.9h-2.5L488,97.1z M488.8,91.2
			h-3v3.9h3c1.2,0,2.1-0.8,2.1-2C490.9,92,490,91.2,488.8,91.2z"/>
		<path class="st2" d="M503.1,99.3h-5.9l-0.9,2.4H494l4.9-12.4h2.7l4.9,12.4h-2.4L503.1,99.3z M497.9,97.4h4.6l-2.3-6.2L497.9,97.4z
			"/>
		<path class="st2" d="M509.5,91.2h-3.7v-1.9h9.7v1.9h-3.7v10.5h-2.2V91.2z"/>
		<path class="st2" d="M517.3,89.3h2.2v12.4h-2.2V89.3z"/>
		<path class="st2" d="M524.3,92.7v9h-2.2V89.3h2.2l6.3,8.8v-8.8h2.2v12.4h-2.1L524.3,92.7z"/>
		<path class="st2" d="M541.4,89.1c2.4,0,4,1.1,5,2.6l-1.8,1c-0.6-0.9-1.8-1.6-3.2-1.6c-2.4,0-4.3,1.9-4.3,4.5
			c0,2.6,1.8,4.5,4.3,4.5c1.3,0,2.4-0.6,2.9-1.1V97h-3.7V95h5.9v4.6c-1.2,1.4-2.9,2.2-5.1,2.2c-3.6,0-6.5-2.5-6.5-6.4
			C534.9,91.6,537.8,89.1,541.4,89.1z"/>
	</g>
	<g>
		<path class="st2" d="M474.3,111.4c2.4,0,4,1.1,5,2.6l-1.8,1c-0.6-0.9-1.8-1.6-3.2-1.6c-2.4,0-4.3,1.9-4.3,4.5
			c0,2.6,1.8,4.5,4.3,4.5c1.3,0,2.4-0.6,2.9-1.1v-1.9h-3.7v-1.9h5.9v4.6c-1.2,1.4-2.9,2.2-5.1,2.2c-3.6,0-6.5-2.5-6.5-6.4
			C467.8,113.9,470.7,111.4,474.3,111.4z"/>
		<path class="st2" d="M481.6,111.6h2.2v7.4c0,2,1.1,3.2,3.2,3.2c2.1,0,3.2-1.3,3.2-3.2v-7.4h2.2v7.5c0,3.1-1.8,5.1-5.3,5.1
			c-3.6,0-5.4-2.1-5.4-5.1V111.6z"/>
		<path class="st2" d="M494.9,111.6h8.5v1.9h-6.3v3.2h6.2v1.9h-6.2v3.4h6.3v1.9h-8.5V111.6z"/>
		<path class="st2" d="M506,120.5c0.9,0.9,2.2,1.7,3.9,1.7c1.8,0,2.5-0.9,2.5-1.7c0-1.1-1.3-1.4-2.8-1.8c-2-0.5-4.4-1.1-4.4-3.7
			c0-2,1.8-3.6,4.5-3.6c1.9,0,3.5,0.6,4.6,1.7l-1.2,1.6c-1-1-2.3-1.4-3.6-1.4c-1.3,0-2.1,0.6-2.1,1.5c0,1,1.3,1.3,2.7,1.6
			c2,0.5,4.5,1.1,4.5,3.8c0,2.1-1.4,3.8-4.8,3.8c-2.3,0-3.9-0.8-5-2L506,120.5z"/>
		<path class="st2" d="M519.4,113.5h-3.7v-1.9h9.7v1.9h-3.7v10.5h-2.2V113.5z"/>
		<path class="st2" d="M527.5,120.5c0.9,0.9,2.2,1.7,3.9,1.7c1.8,0,2.5-0.9,2.5-1.7c0-1.1-1.3-1.4-2.8-1.8c-2-0.5-4.4-1.1-4.4-3.7
			c0-2,1.8-3.6,4.5-3.6c1.9,0,3.5,0.6,4.6,1.7l-1.2,1.6c-1-1-2.3-1.4-3.6-1.4c-1.3,0-2.1,0.6-2.1,1.5c0,1,1.3,1.3,2.7,1.6
			c2,0.5,4.5,1.1,4.5,3.8c0,2.1-1.4,3.8-4.8,3.8c-2.3,0-3.9-0.8-5-2L527.5,120.5z"/>
	</g>
	<g>
		<path class="st2" d="M661.3,192.6c3.7,0,6.3,2.7,6.3,6.4c0,3.7-2.6,6.4-6.3,6.4c-3.7,0-6.3-2.7-6.3-6.4
			C655,195.3,657.6,192.6,661.3,192.6z M661.3,194.6c-2.5,0-4.1,1.9-4.1,4.5c0,2.5,1.6,4.5,4.1,4.5c2.5,0,4.1-1.9,4.1-4.5
			C665.4,196.5,663.8,194.6,661.3,194.6z"/>
		<path class="st2" d="M671.9,196.2v9h-2.2v-12.4h2.2l6.3,8.8v-8.8h2.2v12.4h-2.1L671.9,196.2z"/>
		<path class="st2" d="M683.1,192.8h2.2v10.5h5.4v1.9h-7.6V192.8z"/>
		<path class="st2" d="M692.7,192.8h2.2v12.4h-2.2V192.8z"/>
		<path class="st2" d="M699.6,196.2v9h-2.2v-12.4h2.2l6.3,8.8v-8.8h2.2v12.4h-2.1L699.6,196.2z"/>
		<path class="st2" d="M710.8,192.8h8.5v1.9H713v3.2h6.2v1.9H713v3.4h6.3v1.9h-8.5V192.8z"/>
	</g>
	<g>
		<path class="st2" d="M622.3,221.3c0-3.8,2.8-6.4,6.4-6.4c2.6,0,4.1,1.3,5.1,2.8l-1.9,0.9c-0.6-1-1.8-1.8-3.2-1.8
			c-2.4,0-4.2,1.9-4.2,4.5c0,2.6,1.8,4.5,4.2,4.5c1.4,0,2.6-0.8,3.2-1.8l1.9,0.9c-0.9,1.5-2.5,2.8-5.1,2.8
			C625.2,227.7,622.3,225.1,622.3,221.3z"/>
		<path class="st2" d="M641.3,214.9c3.7,0,6.3,2.7,6.3,6.4c0,3.7-2.6,6.4-6.3,6.4c-3.7,0-6.3-2.7-6.3-6.4
			C635,217.6,637.6,214.9,641.3,214.9z M641.3,216.8c-2.5,0-4.1,1.9-4.1,4.5c0,2.5,1.6,4.5,4.1,4.5c2.5,0,4.1-1.9,4.1-4.5
			C645.4,218.7,643.8,216.8,641.3,216.8z"/>
		<path class="st2" d="M651.9,218.4v9h-2.2v-12.4h2.2l6.3,8.8v-8.8h2.2v12.4h-2.1L651.9,218.4z"/>
		<path class="st2" d="M663,215.1h8.5v1.9h-6.3v3.2h6.2v1.9h-6.2v5.3H663V215.1z"/>
		<path class="st2" d="M673.5,215.1h8.5v1.9h-6.3v3.2h6.2v1.9h-6.2v3.4h6.3v1.9h-8.5V215.1z"/>
		<path class="st2" d="M688.5,222.8h-2.2v4.6h-2.2v-12.4h5.4c2.4,0,4,1.6,4,3.9c0,2.2-1.4,3.4-2.9,3.6l3,4.9h-2.5L688.5,222.8z
			 M689.3,217h-3v3.9h3c1.2,0,2.1-0.8,2.1-2C691.4,217.8,690.5,217,689.3,217z"/>
		<path class="st2" d="M695.8,215.1h8.5v1.9H698v3.2h6.2v1.9H698v3.4h6.3v1.9h-8.5V215.1z"/>
		<path class="st2" d="M708.7,218.4v9h-2.2v-12.4h2.2l6.3,8.8v-8.8h2.2v12.4h-2.1L708.7,218.4z"/>
		<path class="st2" d="M719.3,221.3c0-3.8,2.8-6.4,6.4-6.4c2.6,0,4.1,1.3,5.1,2.8l-1.9,0.9c-0.6-1-1.8-1.8-3.2-1.8
			c-2.4,0-4.2,1.9-4.2,4.5c0,2.6,1.8,4.5,4.2,4.5c1.4,0,2.6-0.8,3.2-1.8l1.9,0.9c-0.9,1.5-2.5,2.8-5.1,2.8
			C722.1,227.7,719.3,225.1,719.3,221.3z"/>
		<path class="st2" d="M732.5,215.1h8.5v1.9h-6.3v3.2h6.2v1.9h-6.2v3.4h6.3v1.9h-8.5V215.1z"/>
		<path class="st2" d="M743.6,224c0.9,0.9,2.2,1.7,3.9,1.7c1.8,0,2.5-0.9,2.5-1.7c0-1.1-1.3-1.4-2.8-1.8c-2-0.5-4.4-1.1-4.4-3.7
			c0-2,1.8-3.6,4.5-3.6c1.9,0,3.5,0.6,4.6,1.7l-1.2,1.6c-1-1-2.3-1.4-3.6-1.4c-1.3,0-2.1,0.6-2.1,1.5c0,1,1.3,1.3,2.7,1.6
			c2,0.5,4.5,1.1,4.5,3.8c0,2.1-1.4,3.8-4.8,3.8c-2.3,0-3.9-0.8-5-2L743.6,224z"/>
	</g>
	<g>
		<path class="st2" d="M804.4,89.3h8.5v1.9h-6.3v3.2h6.2v1.9h-6.2v5.3h-2.2V89.3z"/>
		<path class="st2" d="M819.2,97.1H817v4.6h-2.2V89.3h5.4c2.4,0,4,1.6,4,3.9c0,2.2-1.4,3.4-2.9,3.6l3,4.9h-2.5L819.2,97.1z
			 M820,91.2h-3v3.9h3c1.2,0,2.1-0.8,2.1-2C822.1,92,821.2,91.2,820,91.2z"/>
		<path class="st2" d="M832.3,89.1c3.7,0,6.3,2.7,6.3,6.4c0,3.7-2.6,6.4-6.3,6.4c-3.7,0-6.3-2.7-6.3-6.4
			C825.9,91.8,828.5,89.1,832.3,89.1z M832.3,91c-2.5,0-4.1,1.9-4.1,4.5c0,2.5,1.6,4.5,4.1,4.5c2.5,0,4.1-1.9,4.1-4.5
			C836.4,92.9,834.7,91,832.3,91z"/>
		<path class="st2" d="M851.3,92.3l-3.8,9.4h-0.9l-3.8-9.4v9.4h-2.2V89.3h3.1l3.4,8.3l3.4-8.3h3.1v12.4h-2.2V92.3z"/>
		<path class="st2" d="M860.9,89.3h2.2v12.4h-2.2V89.3z"/>
		<path class="st2" d="M865.7,89.3h4.6c3.9,0,6.5,2.6,6.5,6.2c0,3.6-2.6,6.2-6.5,6.2h-4.6V89.3z M870.3,99.8c2.7,0,4.2-1.9,4.2-4.3
			c0-2.4-1.5-4.3-4.2-4.3h-2.4v8.5H870.3z"/>
		<path class="st2" d="M878.9,89.3h8.5v1.9H881v3.2h6.2v1.9H881v3.4h6.3v1.9h-8.5V89.3z"/>
		<path class="st2" d="M897.4,99.3h-5.9l-0.9,2.4h-2.4l4.9-12.4h2.7l4.9,12.4h-2.4L897.4,99.3z M892.2,97.4h4.6l-2.3-6.2L892.2,97.4
			z"/>
		<path class="st2" d="M902.3,98.3c0.9,0.9,2.2,1.7,3.9,1.7c1.8,0,2.5-0.9,2.5-1.7c0-1.1-1.3-1.4-2.8-1.8c-2-0.5-4.4-1.1-4.4-3.7
			c0-2,1.8-3.6,4.5-3.6c1.9,0,3.5,0.6,4.6,1.7l-1.2,1.6c-1-1-2.3-1.4-3.6-1.4c-1.3,0-2.1,0.6-2.1,1.5c0,1,1.3,1.3,2.7,1.6
			c2,0.5,4.5,1.1,4.5,3.8c0,2.1-1.4,3.8-4.8,3.8c-2.3,0-3.9-0.8-5-2L902.3,98.3z"/>
		<path class="st2" d="M920.6,91.2h-3.7v-1.9h9.7v1.9h-3.7v10.5h-2.2V91.2z"/>
		<path class="st2" d="M933.6,89.1c3.7,0,6.3,2.7,6.3,6.4c0,3.7-2.6,6.4-6.3,6.4c-3.7,0-6.3-2.7-6.3-6.4
			C927.3,91.8,929.9,89.1,933.6,89.1z M933.6,91c-2.5,0-4.1,1.9-4.1,4.5c0,2.5,1.6,4.5,4.1,4.5c2.5,0,4.1-1.9,4.1-4.5
			C937.7,92.9,936.1,91,933.6,91z"/>
	</g>
	<g>
		<path class="st2" d="M795.7,111.6h2.2v12.4h-2.2V111.6z"/>
		<path class="st2" d="M811.2,114.6l-3.8,9.4h-0.9l-3.8-9.4v9.4h-2.2v-12.4h3.1l3.4,8.3l3.4-8.3h3.1v12.4h-2.2V114.6z"/>
		<path class="st2" d="M816,111.6h5.4c2.6,0,4,1.8,4,3.9c0,2.1-1.5,3.9-4,3.9h-3.3v4.6H816V111.6z M821.1,113.5h-3v3.9h3
			c1.2,0,2.1-0.8,2.1-2S822.3,113.5,821.1,113.5z"/>
		<path class="st2" d="M827.2,111.6h2.2V122h5.4v1.9h-7.6V111.6z"/>
		<path class="st2" d="M836.8,111.6h8.5v1.9H839v3.2h6.2v1.9H839v3.4h6.3v1.9h-8.5V111.6z"/>
		<path class="st2" d="M858.2,114.6l-3.8,9.4h-0.9l-3.8-9.4v9.4h-2.2v-12.4h3.1l3.4,8.3l3.4-8.3h3.1v12.4h-2.2V114.6z"/>
		<path class="st2" d="M863,111.6h8.5v1.9h-6.3v3.2h6.2v1.9h-6.2v3.4h6.3v1.9H863V111.6z"/>
		<path class="st2" d="M875.8,114.9v9h-2.2v-12.4h2.2l6.3,8.8v-8.8h2.2v12.4h-2.1L875.8,114.9z"/>
		<path class="st2" d="M890,113.5h-3.7v-1.9h9.7v1.9h-3.7v10.5H890V113.5z"/>
		<path class="st2" d="M904.3,121.5h-5.9l-0.9,2.4h-2.4l4.9-12.4h2.7l4.9,12.4h-2.4L904.3,121.5z M899.1,119.6h4.6l-2.3-6.2
			L899.1,119.6z"/>
		<path class="st2" d="M910.7,113.5H907v-1.9h9.7v1.9h-3.7v10.5h-2.2V113.5z"/>
		<path class="st2" d="M918.5,111.6h2.2v12.4h-2.2V111.6z"/>
		<path class="st2" d="M929.1,111.4c3.7,0,6.3,2.7,6.3,6.4c0,3.7-2.6,6.4-6.3,6.4c-3.7,0-6.3-2.7-6.3-6.4
			C922.7,114.1,925.3,111.4,929.1,111.4z M929.1,113.3c-2.5,0-4.1,1.9-4.1,4.5c0,2.5,1.6,4.5,4.1,4.5c2.5,0,4.1-1.9,4.1-4.5
			C933.1,115.2,931.5,113.3,929.1,113.3z"/>
		<path class="st2" d="M939.6,114.9v9h-2.2v-12.4h2.2l6.3,8.8v-8.8h2.2v12.4h-2.1L939.6,114.9z"/>
	</g>
</g>
</svg>
