<svg id="Layer_1" xmlns="http://www.w3.org/2000/svg" viewBox="0 0 1000 333.6" enable-background="new 0 0 1000 333.6"><style>.st0{opacity:.95}.st1{filter:url(#Adobe_OpacityMaskFilter)}.st2{fill:#fff}.st3{mask:url(#SVGID_1_)}.st4{fill:#2c4758}.st5{opacity:.8}.st6{filter:url(#Adobe_OpacityMaskFilter_1_)}.st7{mask:url(#SVGID_2_)}.st8{opacity:.4}.st9{filter:url(#Adobe_OpacityMaskFilter_2_)}.st10{mask:url(#SVGID_3_)}.st11{opacity:.6}.st12{filter:url(#Adobe_OpacityMaskFilter_3_)}.st13{mask:url(#SVGID_4_)}.st14{opacity:.2}.st15{filter:url(#Adobe_OpacityMaskFilter_4_)}.st16{mask:url(#SVGID_5_)}</style><g class="st0"><defs><filter id="Adobe_OpacityMaskFilter" filterUnits="userSpaceOnUse" x="751.9" y="7.1" width="240.1" height="208.2"><feColorMatrix values="1 0 0 0 0 0 1 0 0 0 0 0 1 0 0 0 0 0 1 0"/></filter></defs><mask maskUnits="userSpaceOnUse" x="751.9" y="7.1" width="240.1" height="208.2" id="SVGID_1_"><g class="st1"><path class="st2" d="M810.3 213.2s1.3 2.2 3.8 2.2h115.7s2.6 0 3.8-2.2l57.8-99.7s1.3-2.2 0-4.4L933.6 9.4s-1.3-2.2-3.8-2.2H814.1s-2.6 0-3.8 2.2l-57.8 99.7s-1.3 2.2 0 4.4l57.8 99.7z"/></g></mask><g class="st3"><path class="st4" d="M810.3 213.2s1.3 2.2 3.8 2.2h115.7s2.6 0 3.8-2.2l57.8-99.7s1.3-2.2 0-4.4L933.6 9.4s-1.3-2.2-3.8-2.2H814.1s-2.6 0-3.8 2.2l-57.8 99.7s-1.3 2.2 0 4.4l57.8 99.7z"/></g></g><g class="st5"><defs><filter id="Adobe_OpacityMaskFilter_1_" filterUnits="userSpaceOnUse" x="567.2" y="113.9" width="240.1" height="208.2"><feColorMatrix values="1 0 0 0 0 0 1 0 0 0 0 0 1 0 0 0 0 0 1 0"/></filter></defs><mask maskUnits="userSpaceOnUse" x="567.2" y="113.9" width="240.1" height="208.2" id="SVGID_2_"><g class="st6"><path class="st2" d="M625.6 319.9s1.3 2.2 3.8 2.2h115.7s2.6 0 3.8-2.2l57.8-99.7s1.3-2.2 0-4.4l-57.8-99.7s-1.3-2.2-3.8-2.2H629.4s-2.6 0-3.8 2.2l-57.8 99.7s-1.3 2.2 0 4.4l57.8 99.7z"/></g></mask><g class="st7"><path class="st4" d="M625.6 319.9s1.3 2.2 3.8 2.2h115.7s2.6 0 3.8-2.2l57.8-99.7s1.3-2.2 0-4.4l-57.8-99.7s-1.3-2.2-3.8-2.2H629.4s-2.6 0-3.8 2.2l-57.8 99.7s-1.3 2.2 0 4.4l57.8 99.7z"/></g></g><g class="st8"><defs><filter id="Adobe_OpacityMaskFilter_2_" filterUnits="userSpaceOnUse" x="197.2" y="113.9" width="240.1" height="208.2"><feColorMatrix values="1 0 0 0 0 0 1 0 0 0 0 0 1 0 0 0 0 0 1 0"/></filter></defs><mask maskUnits="userSpaceOnUse" x="197.2" y="113.9" width="240.1" height="208.2" id="SVGID_3_"><g class="st9"><path class="st2" d="M255.5 319.9s1.3 2.2 3.8 2.2H375s2.6 0 3.8-2.2l57.8-99.7s1.3-2.2 0-4.4l-57.8-99.7s-1.3-2.2-3.8-2.2H259.4s-2.6 0-3.8 2.2l-57.8 99.7s-1.3 2.2 0 4.4l57.7 99.7z"/></g></mask><g class="st10"><path class="st4" d="M255.5 319.9s1.3 2.2 3.8 2.2H375s2.6 0 3.8-2.2l57.8-99.7s1.3-2.2 0-4.4l-57.8-99.7s-1.3-2.2-3.8-2.2H259.4s-2.6 0-3.8 2.2l-57.8 99.7s-1.3 2.2 0 4.4l57.7 99.7z"/></g></g><g class="st11"><defs><filter id="Adobe_OpacityMaskFilter_3_" filterUnits="userSpaceOnUse" x="381.8" y="8.3" width="240.1" height="208.2"><feColorMatrix values="1 0 0 0 0 0 1 0 0 0 0 0 1 0 0 0 0 0 1 0"/></filter></defs><mask maskUnits="userSpaceOnUse" x="381.8" y="8.3" width="240.1" height="208.2" id="SVGID_4_"><g class="st12"><path class="st2" d="M440.2 214.4s1.3 2.2 3.8 2.2h115.7s2.6 0 3.8-2.2l57.8-99.7s1.3-2.2 0-4.4l-57.8-99.7s-1.3-2.2-3.8-2.2H444.1s-2.6 0-3.8 2.2l-57.8 99.7s-1.3 2.2 0 4.4l57.7 99.7z"/></g></mask><g class="st13"><path class="st4" d="M440.2 214.4s1.3 2.2 3.8 2.2h115.7s2.6 0 3.8-2.2l57.8-99.7s1.3-2.2 0-4.4l-57.8-99.7s-1.3-2.2-3.8-2.2H444.1s-2.6 0-3.8 2.2l-57.8 99.7s-1.3 2.2 0 4.4l57.7 99.7z"/></g></g><g class="st14"><defs><filter id="Adobe_OpacityMaskFilter_4_" filterUnits="userSpaceOnUse" x="11.8" y="8.3" width="240.1" height="208.2"><feColorMatrix values="1 0 0 0 0 0 1 0 0 0 0 0 1 0 0 0 0 0 1 0"/></filter></defs><mask maskUnits="userSpaceOnUse" x="11.8" y="8.3" width="240.1" height="208.2" id="SVGID_5_"><g class="st15"><path class="st2" d="M70.2 214.4s1.3 2.2 3.8 2.2h115.7s2.6 0 3.8-2.2l57.8-99.7s1.3-2.2 0-4.4l-57.8-99.7s-1.3-2.2-3.8-2.2H74.1s-2.6 0-3.8 2.2l-57.8 99.7s-1.3 2.2 0 4.4l57.7 99.7z"/></g></mask><g class="st16"><path class="st4" d="M70.2 214.4s1.3 2.2 3.8 2.2h115.7s2.6 0 3.8-2.2l57.8-99.7s1.3-2.2 0-4.4l-57.8-99.7s-1.3-2.2-3.8-2.2H74.1s-2.6 0-3.8 2.2l-57.8 99.7s-1.3 2.2 0 4.4l57.7 99.7z"/></g></g><path class="st2" d="M40 93.1h5.4c2.6 0 4 1.8 4 3.9 0 2.1-1.5 3.9-4 3.9h-3.3v4.6H40V93.1zm5.1 1.9h-3v3.9h3c1.2 0 2.1-.8 2.1-2s-.9-1.9-2.1-1.9zm12.6 8.1h-5.9l-.9 2.4h-2.4l4.9-12.4h2.7l4.9 12.4h-2.4l-.9-2.4zm-5.2-1.9h4.6L54.8 95l-2.3 6.2zm14.2-.4h-2.2v4.6h-2.2V93.1h5.4c2.4 0 4 1.6 4 3.9 0 2.2-1.4 3.4-2.9 3.6l3 4.9h-2.5l-2.6-4.7zm.8-5.8h-3v3.9h3c1.2 0 2.1-.8 2.1-2s-.9-1.9-2.1-1.9zm9.3 0H73v-1.9h9.7V95H79v10.5h-2.2V95zm9.9 1.4v9h-2.2V93.1h2.2l6.3 8.8v-8.8h2.2v12.4h-2.1l-6.4-9.1zm11.1-3.3h8.5V95H100v3.2h6.2v1.9H100v3.4h6.3v1.9h-8.5V93.1zm15.1 7.7h-2.2v4.6h-2.2V93.1h5.4c2.4 0 4 1.6 4 3.9 0 2.2-1.4 3.4-2.9 3.6l3 4.9h-2.5l-2.6-4.7zm.8-5.8h-3v3.9h3c1.2 0 2.1-.8 2.1-2s-.9-1.9-2.1-1.9zm21.5 10.4h-2.5l-1.1-1.1c-.9.8-2.1 1.3-3.5 1.3-2.2 0-4-1.2-4-3.5 0-1.9 1.3-2.9 2.7-3.6-.5-.9-.9-1.9-.9-2.7 0-1.7 1.4-2.9 3.4-2.9 1.7 0 3.1.9 3.1 2.5 0 1.9-1.5 2.7-3.1 3.4.4.6.9 1.1 1.2 1.5.4.5.8 1 1.2 1.4.6-.9 1-1.9 1.2-2.6l1.6.7c-.4 1-1 2.1-1.7 3.1.8.9 1.6 1.7 2.4 2.5zm-4.7-2.2c-.6-.7-1.2-1.3-1.5-1.7-.4-.5-.9-1.1-1.4-1.8-.8.5-1.4 1.2-1.4 2.2 0 1.4 1 2.1 2.2 2.1.8.1 1.5-.2 2.1-.8zm-1.9-5.5c1.2-.6 2.1-1.2 2.1-2.2 0-.8-.5-1.2-1.2-1.2-.8 0-1.5.6-1.5 1.5-.1.6.2 1.3.6 1.9zm13-4.6h5.4c2.6 0 4 1.8 4 3.9 0 2.1-1.5 3.9-4 3.9h-3.3v4.6h-2.2V93.1zm5.2 1.9h-3v3.9h3c1.2 0 2.1-.8 2.1-2s-.9-1.9-2.1-1.9zm10.4 5.8H155v4.6h-2.2V93.1h5.4c2.4 0 4 1.6 4 3.9 0 2.2-1.4 3.4-2.9 3.6l3 4.9H160l-2.8-4.7zm.8-5.8h-3v3.9h3c1.2 0 2.1-.8 2.1-2s-.8-1.9-2.1-1.9zm12.3-2.1c3.7 0 6.3 2.7 6.3 6.4s-2.6 6.4-6.3 6.4c-3.7 0-6.3-2.7-6.3-6.4s2.6-6.4 6.3-6.4zm0 1.9c-2.5 0-4.1 1.9-4.1 4.5 0 2.5 1.6 4.5 4.1 4.5 2.5 0 4.1-1.9 4.1-4.5s-1.6-4.5-4.1-4.5zm8.4-1.7h6.1c2.3 0 3.5 1.4 3.5 3.2 0 1.6-1 2.6-2.2 2.8 1.3.2 2.4 1.5 2.4 3 0 1.9-1.3 3.3-3.6 3.3h-6.2V93.1zm5.7 5.1c1.1 0 1.7-.7 1.7-1.6 0-.9-.6-1.6-1.7-1.6h-3.5v3.2h3.5zm.1 5.3c1.2 0 1.9-.6 1.9-1.7 0-.9-.6-1.7-1.9-1.7h-3.6v3.4h3.6zm6.2-10.4h2.2v10.5h5.4v1.9h-7.6V93.1zm9.6 0h8.5V95h-6.3v3.2h6.2v1.9h-6.2v3.4h6.3v1.9h-8.5V93.1zm21.4 3l-3.8 9.4h-.9l-3.8-9.4v9.4H211V93.1h3.1l3.4 8.3 3.4-8.3h3.1v12.4h-2.2v-9.4zM63.4 115.3h2.2v12.4h-2.2v-12.4zm4.8 0h4.6c3.9 0 6.5 2.6 6.5 6.2s-2.6 6.2-6.5 6.2h-4.6v-12.4zm4.6 10.5c2.7 0 4.2-1.9 4.2-4.3s-1.5-4.3-4.2-4.3h-2.4v8.5h2.4zm8.6-10.5h8.5v1.9h-6.3v3.2h6.2v1.9h-6.2v3.4h6.3v1.9h-8.5v-12.3zm12.9 3.4v9h-2.2v-12.4h2.2l6.3 8.8v-8.8h2.2v12.4h-2.1l-6.4-9zm14.1-1.5h-3.7v-1.9h9.7v1.9h-3.7v10.5h-2.2v-10.5zm7.7-1.9h2.2v12.4h-2.2v-12.4zm4.8 0h8.5v1.9h-6.3v3.2h6.2v1.9h-6.2v5.3h-2.2v-12.3zm10.4 0h2.2v12.4h-2.2v-12.4zm4.3 6.2c0-3.8 2.8-6.4 6.4-6.4 2.6 0 4.1 1.3 5.1 2.8l-1.9.9c-.6-1-1.8-1.8-3.2-1.8-2.4 0-4.2 1.9-4.2 4.5s1.8 4.5 4.2 4.5c1.4 0 2.6-.8 3.2-1.8l1.9.9c-.9 1.5-2.5 2.8-5.1 2.8-3.6 0-6.4-2.6-6.4-6.4zm20.9 3.8h-5.9l-.9 2.4h-2.4l4.9-12.4h2.7l4.9 12.4h-2.4l-.9-2.4zm-5.2-1.9h4.6l-2.3-6.2-2.3 6.2zm11.6-6.2h-3.7v-1.9h9.7v1.9h-3.7v10.5H163v-10.5zm7.8-1.9h2.2v12.4h-2.2v-12.4zm10.5-.2c3.7 0 6.3 2.7 6.3 6.4s-2.6 6.4-6.3 6.4c-3.7 0-6.3-2.7-6.3-6.4s2.6-6.4 6.3-6.4zm0 1.9c-2.5 0-4.1 1.9-4.1 4.5 0 2.5 1.6 4.5 4.1 4.5 2.5 0 4.1-1.9 4.1-4.5s-1.6-4.5-4.1-4.5zm10.6 1.7v9h-2.2v-12.4h2.2l6.3 8.8v-8.8h2.2v12.4h-2.1l-6.4-9zm84.3 74.1h5.4c2.6 0 4 1.8 4 3.9 0 2.1-1.5 3.9-4 3.9h-3.3v4.6H276v-12.4zm5.1 2h-3v3.9h3c1.2 0 2.1-.8 2.1-2s-.8-1.9-2.1-1.9zm10.5 5.8h-2.2v4.6h-2.2v-12.4h5.4c2.4 0 4 1.6 4 3.9 0 2.2-1.4 3.4-2.9 3.6l3 4.9h-2.5l-2.6-4.6zm.8-5.8h-3v3.9h3c1.2 0 2.1-.8 2.1-2s-.9-1.9-2.1-1.9zm12.3-2.2c3.7 0 6.3 2.7 6.3 6.4s-2.6 6.4-6.3 6.4c-3.7 0-6.3-2.7-6.3-6.4-.1-3.7 2.6-6.4 6.3-6.4zm0 2c-2.5 0-4.1 1.9-4.1 4.5 0 2.5 1.6 4.5 4.1 4.5 2.5 0 4.1-1.9 4.1-4.5s-1.6-4.5-4.1-4.5zm8.4-1.8h6.1c2.3 0 3.5 1.4 3.5 3.2 0 1.6-1 2.6-2.2 2.8 1.3.2 2.4 1.5 2.4 3 0 1.9-1.3 3.3-3.6 3.3h-6.2v-12.3zm5.6 5.2c1.1 0 1.7-.7 1.7-1.6s-.6-1.6-1.7-1.6h-3.5v3.2h3.5zm.1 5.3c1.2 0 1.9-.6 1.9-1.7 0-.9-.6-1.7-1.9-1.7h-3.6v3.4h3.6zm6.3-10.5h2.2v10.5h5.4v1.9h-7.6v-12.4zm9.6 0h8.5v1.9H337v3.2h6.2v1.9H337v3.4h6.3v1.9h-8.5v-12.3zm21.3 3l-3.8 9.4h-.9l-3.8-9.4v9.4h-2.2v-12.4h3.1l3.4 8.3 3.4-8.3h3.1v12.4h-2.2v-9.4zm-87.7 19.3h4.6c3.9 0 6.5 2.6 6.5 6.2s-2.6 6.2-6.5 6.2h-4.6v-12.4zm4.6 10.4c2.7 0 4.2-1.9 4.2-4.3s-1.5-4.3-4.2-4.3h-2.4v8.5h2.4zm8.6-10.4h8.5v1.9h-6.3v3.2h6.2v1.9h-6.2v3.4h6.3v1.9h-8.5v-12.3zm10.7 0h8.5v1.9h-6.3v3.2h6.2v1.9h-6.2v5.3h-2.2v-12.3zm10.4 0h2.2v12.4h-2.2v-12.4zm6.9 3.3v9h-2.2V215h2.2l6.3 8.8V215h2.2v12.4H316l-6.4-9zm11.2-3.3h2.2v12.4h-2.2v-12.4zm7.8 1.9h-3.7v-1.9h9.7v1.9h-3.7v10.5h-2.2V217zm7.7-1.9h2.2v12.4h-2.2v-12.4zm10.6-.2c3.7 0 6.3 2.7 6.3 6.4s-2.6 6.4-6.3 6.4c-3.7 0-6.3-2.7-6.3-6.4s2.6-6.4 6.3-6.4zm0 1.9c-2.5 0-4.1 1.9-4.1 4.5 0 2.5 1.6 4.5 4.1 4.5 2.5 0 4.1-1.9 4.1-4.5s-1.6-4.5-4.1-4.5zm10.6 1.6v9h-2.2V215h2.2l6.3 8.8V215h2.2v12.4h-2.1l-6.4-9zm99.6-122.9c0-3.8 2.8-6.4 6.4-6.4 2.6 0 4.1 1.3 5.1 2.8l-1.9.9c-.6-1-1.8-1.8-3.2-1.8-2.4 0-4.2 1.9-4.2 4.5s1.8 4.5 4.2 4.5c1.4 0 2.6-.8 3.2-1.8l1.9.9c-.9 1.5-2.5 2.8-5.1 2.8-3.5 0-6.4-2.6-6.4-6.4zm13.2-6.2h2.2v7.4c0 2 1.1 3.2 3.2 3.2s3.2-1.3 3.2-3.2v-7.4h2.2v7.5c0 3.1-1.8 5.1-5.3 5.1-3.6 0-5.4-2.1-5.4-5.1v-7.5zm17.7 7.8h-2.2v4.6h-2.2V89.3h5.4c2.4 0 4 1.6 4 3.9 0 2.2-1.4 3.4-2.9 3.6l3 4.9h-2.5l-2.6-4.6zm.8-5.9h-3v3.9h3c1.2 0 2.1-.8 2.1-2 0-1.1-.9-1.9-2.1-1.9zm14.3 8.1h-5.9l-.9 2.4H494l4.9-12.4h2.7l4.9 12.4h-2.4l-1-2.4zm-5.2-1.9h4.6l-2.3-6.2-2.3 6.2zm11.6-6.2h-3.7v-1.9h9.7v1.9h-3.7v10.5h-2.2V91.2zm7.8-1.9h2.2v12.4h-2.2V89.3zm7 3.4v9h-2.2V89.3h2.2l6.3 8.8v-8.8h2.2v12.4h-2.1l-6.4-9zm17.1-3.6c2.4 0 4 1.1 5 2.6l-1.8 1c-.6-.9-1.8-1.6-3.2-1.6-2.4 0-4.3 1.9-4.3 4.5s1.8 4.5 4.3 4.5c1.3 0 2.4-.6 2.9-1.1v-2h-3.7v-2h5.9v4.6c-1.2 1.4-2.9 2.2-5.1 2.2-3.6 0-6.5-2.5-6.5-6.4 0-3.8 2.9-6.3 6.5-6.3zm-67.1 22.3c2.4 0 4 1.1 5 2.6l-1.8 1c-.6-.9-1.8-1.6-3.2-1.6-2.4 0-4.3 1.9-4.3 4.5s1.8 4.5 4.3 4.5c1.3 0 2.4-.6 2.9-1.1v-1.9h-3.7v-1.9h5.9v4.6c-1.2 1.4-2.9 2.2-5.1 2.2-3.6 0-6.5-2.5-6.5-6.4 0-4 2.9-6.5 6.5-6.5zm7.3.2h2.2v7.4c0 2 1.1 3.2 3.2 3.2s3.2-1.3 3.2-3.2v-7.4h2.2v7.5c0 3.1-1.8 5.1-5.3 5.1-3.6 0-5.4-2.1-5.4-5.1v-7.5zm13.3 0h8.5v1.9h-6.3v3.2h6.2v1.9h-6.2v3.4h6.3v1.9h-8.5v-12.3zm11.1 8.9c.9.9 2.2 1.7 3.9 1.7 1.8 0 2.5-.9 2.5-1.7 0-1.1-1.3-1.4-2.8-1.8-2-.5-4.4-1.1-4.4-3.7 0-2 1.8-3.6 4.5-3.6 1.9 0 3.5.6 4.6 1.7l-1.2 1.6c-1-1-2.3-1.4-3.6-1.4-1.3 0-2.1.6-2.1 1.5 0 1 1.3 1.3 2.7 1.6 2 .5 4.5 1.1 4.5 3.8 0 2.1-1.4 3.8-4.8 3.8-2.3 0-3.9-.8-5-2l1.2-1.5zm13.4-7h-3.7v-1.9h9.7v1.9h-3.7V124h-2.2v-10.5zm8.1 7c.9.9 2.2 1.7 3.9 1.7 1.8 0 2.5-.9 2.5-1.7 0-1.1-1.3-1.4-2.8-1.8-2-.5-4.4-1.1-4.4-3.7 0-2 1.8-3.6 4.5-3.6 1.9 0 3.5.6 4.6 1.7l-1.2 1.6c-1-1-2.3-1.4-3.6-1.4-1.3 0-2.1.6-2.1 1.5 0 1 1.3 1.3 2.7 1.6 2 .5 4.5 1.1 4.5 3.8 0 2.1-1.4 3.8-4.8 3.8-2.3 0-3.9-.8-5-2l1.2-1.5zm133.8 72.1c3.7 0 6.3 2.7 6.3 6.4s-2.6 6.4-6.3 6.4c-3.7 0-6.3-2.7-6.3-6.4s2.6-6.4 6.3-6.4zm0 2c-2.5 0-4.1 1.9-4.1 4.5 0 2.5 1.6 4.5 4.1 4.5 2.5 0 4.1-1.9 4.1-4.5s-1.6-4.5-4.1-4.5zm10.6 1.6v9h-2.2v-12.4h2.2l6.3 8.8v-8.8h2.2v12.4h-2.1l-6.4-9zm11.2-3.4h2.2v10.5h5.4v1.9h-7.6v-12.4zm9.6 0h2.2v12.4h-2.2v-12.4zm6.9 3.4v9h-2.2v-12.4h2.2l6.3 8.8v-8.8h2.2v12.4H706l-6.4-9zm11.2-3.4h8.5v1.9H713v3.2h6.2v1.9H713v3.4h6.3v1.9h-8.5v-12.3zm-88.5 28.5c0-3.8 2.8-6.4 6.4-6.4 2.6 0 4.1 1.3 5.1 2.8l-1.9.9c-.6-1-1.8-1.8-3.2-1.8-2.4 0-4.2 1.9-4.2 4.5s1.8 4.5 4.2 4.5c1.4 0 2.6-.8 3.2-1.8l1.9.9c-.9 1.5-2.5 2.8-5.1 2.8-3.5 0-6.4-2.6-6.4-6.4zm19-6.4c3.7 0 6.3 2.7 6.3 6.4s-2.6 6.4-6.3 6.4c-3.7 0-6.3-2.7-6.3-6.4s2.6-6.4 6.3-6.4zm0 1.9c-2.5 0-4.1 1.9-4.1 4.5 0 2.5 1.6 4.5 4.1 4.5 2.5 0 4.1-1.9 4.1-4.5s-1.6-4.5-4.1-4.5zm10.6 1.6v9h-2.2V215h2.2l6.3 8.8V215h2.2v12.4h-2.1l-6.4-9zm11.1-3.3h8.5v1.9h-6.3v3.2h6.2v1.9h-6.2v5.3H663v-12.3zm10.5 0h8.5v1.9h-6.3v3.2h6.2v1.9h-6.2v3.4h6.3v1.9h-8.5v-12.3zm15 7.7h-2.2v4.6h-2.2V215h5.4c2.4 0 4 1.6 4 3.9 0 2.2-1.4 3.4-2.9 3.6l3 4.9h-2.5l-2.6-4.6zm.8-5.8h-3v3.9h3c1.2 0 2.1-.8 2.1-2 0-1.1-.9-1.9-2.1-1.9zm6.5-1.9h8.5v1.9H698v3.2h6.2v1.9H698v3.4h6.3v1.9h-8.5v-12.3zm12.9 3.3v9h-2.2V215h2.2l6.3 8.8V215h2.2v12.4h-2.1l-6.4-9zm10.6 2.9c0-3.8 2.8-6.4 6.4-6.4 2.6 0 4.1 1.3 5.1 2.8l-1.9.9c-.6-1-1.8-1.8-3.2-1.8-2.4 0-4.2 1.9-4.2 4.5s1.8 4.5 4.2 4.5c1.4 0 2.6-.8 3.2-1.8l1.9.9c-.9 1.5-2.5 2.8-5.1 2.8-3.6 0-6.4-2.6-6.4-6.4zm13.2-6.2h8.5v1.9h-6.3v3.2h6.2v1.9h-6.2v3.4h6.3v1.9h-8.5v-12.3zm11.1 8.9c.9.9 2.2 1.7 3.9 1.7 1.8 0 2.5-.9 2.5-1.7 0-1.1-1.3-1.4-2.8-1.8-2-.5-4.4-1.1-4.4-3.7 0-2 1.8-3.6 4.5-3.6 1.9 0 3.5.6 4.6 1.7l-1.2 1.6c-1-1-2.3-1.4-3.6-1.4-1.3 0-2.1.6-2.1 1.5 0 1 1.3 1.3 2.7 1.6 2 .5 4.5 1.1 4.5 3.8 0 2.1-1.4 3.8-4.8 3.8-2.3 0-3.9-.8-5-2l1.2-1.5zm60.8-134.7h8.5v1.9h-6.3v3.2h6.2v1.9h-6.2v5.3h-2.2V89.3zm14.8 7.8H817v4.6h-2.2V89.3h5.4c2.4 0 4 1.6 4 3.9 0 2.2-1.4 3.4-2.9 3.6l3 4.9h-2.5l-2.6-4.6zm.8-5.9h-3v3.9h3c1.2 0 2.1-.8 2.1-2 0-1.1-.9-1.9-2.1-1.9zm12.3-2.1c3.7 0 6.3 2.7 6.3 6.4s-2.6 6.4-6.3 6.4c-3.7 0-6.3-2.7-6.3-6.4-.1-3.7 2.5-6.4 6.3-6.4zm0 1.9c-2.5 0-4.1 1.9-4.1 4.5 0 2.5 1.6 4.5 4.1 4.5 2.5 0 4.1-1.9 4.1-4.5s-1.7-4.5-4.1-4.5zm19 1.3l-3.8 9.4h-.9l-3.8-9.4v9.4h-2.2V89.3h3.1l3.4 8.3 3.4-8.3h3.1v12.4h-2.2v-9.4zm9.6-3h2.2v12.4h-2.2V89.3zm4.8 0h4.6c3.9 0 6.5 2.6 6.5 6.2s-2.6 6.2-6.5 6.2h-4.6V89.3zm4.6 10.5c2.7 0 4.2-1.9 4.2-4.3s-1.5-4.3-4.2-4.3h-2.4v8.5h2.4zm8.6-10.5h8.5v1.9H881v3.2h6.2v1.9H881v3.4h6.3v1.9h-8.5V89.3zm18.5 10h-5.9l-.9 2.4h-2.4l4.9-12.4h2.7l4.9 12.4h-2.4l-.9-2.4zm-5.2-1.9h4.6l-2.3-6.2-2.3 6.2zm10.1.9c.9.9 2.2 1.7 3.9 1.7 1.8 0 2.5-.9 2.5-1.7 0-1.1-1.3-1.4-2.8-1.8-2-.5-4.4-1.1-4.4-3.7 0-2 1.8-3.6 4.5-3.6 1.9 0 3.5.6 4.6 1.7l-1.2 1.6c-1-1-2.3-1.4-3.6-1.4-1.3 0-2.1.6-2.1 1.5 0 1 1.3 1.3 2.7 1.6 2 .5 4.5 1.1 4.5 3.8 0 2.1-1.4 3.8-4.8 3.8-2.3 0-3.9-.8-5-2l1.2-1.5zm18.3-7.1h-3.7v-1.9h9.7v1.9h-3.7v10.5h-2.2V91.2zm13-2.1c3.7 0 6.3 2.7 6.3 6.4s-2.6 6.4-6.3 6.4c-3.7 0-6.3-2.7-6.3-6.4s2.6-6.4 6.3-6.4zm0 1.9c-2.5 0-4.1 1.9-4.1 4.5 0 2.5 1.6 4.5 4.1 4.5 2.5 0 4.1-1.9 4.1-4.5s-1.6-4.5-4.1-4.5zm-137.9 20.6h2.2V124h-2.2v-12.4zm15.5 3l-3.8 9.4h-.9l-3.8-9.4v9.4h-2.2v-12.4h3.1l3.4 8.3 3.4-8.3h3.1V124h-2.2v-9.4zm4.8-3h5.4c2.6 0 4 1.8 4 3.9 0 2.1-1.5 3.9-4 3.9h-3.3v4.6H816v-12.4zm5.1 1.9h-3v3.9h3c1.2 0 2.1-.8 2.1-2s-.9-1.9-2.1-1.9zm6.1-1.9h2.2V122h5.4v1.9h-7.6v-12.3zm9.6 0h8.5v1.9H839v3.2h6.2v1.9H839v3.4h6.3v1.9h-8.5v-12.3zm21.4 3l-3.8 9.4h-.9l-3.8-9.4v9.4h-2.2v-12.4h3.1l3.4 8.3 3.4-8.3h3.1V124h-2.2v-9.4zm4.8-3h8.5v1.9h-6.3v3.2h6.2v1.9h-6.2v3.4h6.3v1.9H863v-12.3zm12.8 3.3v9h-2.2v-12.4h2.2l6.3 8.8v-8.8h2.2v12.4h-2.1l-6.4-9zm14.2-1.4h-3.7v-1.9h9.7v1.9h-3.7V124H890v-10.5zm14.3 8h-5.9l-.9 2.4h-2.4l4.9-12.4h2.7l4.9 12.4h-2.4l-.9-2.4zm-5.2-1.9h4.6l-2.3-6.2-2.3 6.2zm11.6-6.1H907v-1.9h9.7v1.9H913V124h-2.2v-10.5zm7.8-1.9h2.2V124h-2.2v-12.4zm10.6-.2c3.7 0 6.3 2.7 6.3 6.4s-2.6 6.4-6.3 6.4c-3.7 0-6.3-2.7-6.3-6.4-.1-3.7 2.5-6.4 6.3-6.4zm0 1.9c-2.5 0-4.1 1.9-4.1 4.5 0 2.5 1.6 4.5 4.1 4.5 2.5 0 4.1-1.9 4.1-4.5-.1-2.6-1.7-4.5-4.1-4.5zm10.5 1.6v9h-2.2v-12.4h2.2l6.3 8.8v-8.8h2.2v12.4H946l-6.4-9z"/></svg>